<?xml version="1.0" encoding="UTF-8" ?>
<!DOCTYPE svg PUBLIC "-//W3C//DTD SVG 1.1//EN" "http://www.w3.org/Graphics/SVG/1.1/DTD/svg11.dtd">
<svg width="594pt" height="361pt" viewBox="0 0 594 361" version="1.1" xmlns="http://www.w3.org/2000/svg">
<path fill="#ffffff" d=" M 0.00 0.00 L 594.00 0.00 L 594.00 361.00 L 0.00 361.00 L 0.00 0.00 Z" />
<path fill="#585858" d=" M 48.02 14.06 L 48.71 14.21 C 49.03 14.38 49.69 14.72 50.01 14.89 C 49.61 25.18 49.44 35.54 50.03 45.81 C 51.14 46.46 53.74 45.69 53.75 47.44 C 52.50 47.69 51.27 47.94 50.03 48.20 C 49.29 57.43 49.94 66.74 49.73 76.00 C 49.93 82.26 49.25 88.58 50.07 94.80 C 51.45 95.31 52.98 95.51 54.21 96.39 C 52.81 96.67 51.41 96.96 50.01 97.25 C 49.31 107.80 49.94 118.42 49.73 128.99 C 49.86 133.83 49.33 138.72 50.01 143.53 C 50.89 145.06 52.92 144.81 54.36 145.44 C 52.89 145.72 51.43 146.01 49.97 146.30 C 49.35 159.51 49.96 172.77 49.68 186.00 C 49.83 188.39 49.30 191.00 50.35 193.23 C 51.61 193.98 53.13 194.02 54.48 194.57 C 52.97 194.80 51.46 195.06 49.95 195.34 C 49.38 207.54 49.92 219.78 49.71 232.00 C 49.83 235.43 49.29 238.96 50.20 242.31 C 51.54 243.05 53.16 242.92 54.51 243.66 C 52.99 243.85 51.46 244.08 49.95 244.35 C 49.39 255.88 49.90 267.45 49.72 279.00 C 49.77 283.26 49.47 287.54 49.99 291.79 C 51.43 291.84 52.88 291.86 54.32 291.83 C 55.52 299.51 54.30 307.27 54.97 314.97 C 59.62 315.62 64.32 315.28 69.00 315.31 C 109.34 315.30 149.67 315.30 190.00 315.31 C 194.65 315.27 199.34 315.65 203.96 314.96 C 204.55 311.00 204.32 306.98 204.38 303.00 C 204.31 299.30 204.91 295.38 203.04 292.01 C 202.37 280.62 202.66 269.18 202.82 257.79 C 203.29 257.84 204.24 257.96 204.71 258.02 C 204.99 266.67 204.70 275.33 204.81 283.99 C 204.95 293.97 204.16 303.97 204.89 313.93 C 205.36 314.11 206.28 314.48 206.74 314.67 C 209.10 315.65 211.79 315.69 214.04 314.39 C 215.18 313.77 216.31 313.14 217.46 312.53 C 217.00 313.42 216.57 314.33 216.17 315.26 C 219.52 315.55 222.92 315.43 226.21 314.72 C 226.94 314.54 228.40 314.19 229.13 314.02 C 229.72 311.84 228.50 308.78 230.06 307.14 C 229.94 309.66 229.84 312.20 230.16 314.71 L 231.08 314.73 C 234.26 314.68 237.46 314.73 240.64 314.41 C 241.14 312.98 241.42 311.50 241.83 310.06 C 241.79 311.69 241.84 313.32 242.01 314.95 C 246.01 315.66 250.14 315.58 254.15 314.96 C 254.16 313.34 254.01 311.72 253.80 310.12 C 254.62 311.72 254.91 313.92 256.86 314.57 C 259.45 315.77 262.48 315.78 265.07 314.57 C 265.84 313.82 266.59 313.05 267.31 312.26 C 267.25 312.90 267.13 314.18 267.08 314.82 C 267.57 314.81 268.57 314.80 269.07 314.79 C 270.98 314.74 272.89 314.73 274.80 314.82 C 278.16 315.23 281.58 315.65 284.94 314.98 C 284.84 314.23 284.66 312.75 284.56 312.01 L 285.06 311.60 C 286.02 312.51 286.63 313.74 287.72 314.51 C 288.15 314.52 289.01 314.54 289.44 314.55 C 290.47 314.56 291.51 314.57 292.56 314.58 C 295.48 315.44 298.53 315.47 301.44 314.52 C 303.79 314.55 306.17 314.69 308.52 314.48 C 309.32 313.12 308.72 310.57 310.60 310.18 C 310.92 311.61 311.14 313.06 311.51 314.49 C 317.92 314.92 324.35 314.17 330.78 314.43 C 331.65 314.46 332.53 314.48 333.42 314.48 C 339.53 314.55 345.66 314.70 351.78 314.52 C 352.07 313.05 352.15 311.54 352.19 310.05 C 352.23 292.74 352.08 275.43 352.23 258.12 C 352.64 258.06 353.47 257.93 353.88 257.87 C 354.04 272.24 353.88 286.62 353.93 301.00 C 354.00 305.51 353.63 310.06 354.26 314.54 C 360.74 314.66 367.24 314.56 373.72 314.54 C 374.09 314.53 374.82 314.52 375.19 314.52 C 381.71 314.49 388.24 314.72 394.76 314.53 C 395.71 306.14 394.66 297.66 395.24 289.25 C 395.62 289.25 396.37 289.26 396.74 289.26 C 397.31 297.73 396.26 306.26 397.25 314.70 C 401.78 313.06 406.36 314.84 410.99 314.61 C 433.98 314.37 456.97 314.83 479.95 314.39 C 480.25 314.37 480.86 314.34 481.16 314.32 C 487.09 314.75 493.05 314.48 499.00 314.59 C 502.39 314.57 505.99 314.99 509.12 313.36 C 508.37 316.32 512.70 315.88 512.00 313.15 C 515.51 314.15 519.10 314.90 522.78 314.62 C 523.17 314.61 523.97 314.60 524.36 314.59 C 525.81 314.53 527.27 314.53 528.73 314.35 C 529.11 314.27 529.88 314.12 530.27 314.04 C 531.10 313.81 531.93 313.56 532.78 313.34 C 532.64 313.76 532.37 314.61 532.24 315.03 C 535.13 315.82 538.25 315.60 540.93 314.19 L 541.56 314.43 C 542.93 315.46 543.95 313.63 543.55 312.42 C 544.62 308.36 543.66 304.04 544.98 300.05 C 547.62 304.37 544.15 310.39 547.27 314.32 C 547.34 314.33 547.47 314.36 547.53 314.38 L 548.46 314.54 C 551.96 315.61 555.68 315.31 559.24 314.72 C 561.46 314.62 563.69 314.61 565.92 314.71 L 566.95 314.84 L 566.90 315.82 C 394.01 316.01 221.11 315.63 48.23 315.73 C 47.81 312.50 48.02 309.24 47.99 306.00 C 48.03 208.69 47.96 111.37 48.02 14.06 Z" />
<path fill="#010101" d=" M 48.71 14.21 C 167.13 14.02 285.57 14.21 404.00 14.12 C 458.35 14.22 512.71 14.00 567.06 14.22 C 567.40 112.81 567.08 211.41 567.22 310.00 C 567.20 311.61 567.24 313.24 566.95 314.84 L 565.92 314.71 C 565.75 307.47 566.07 300.23 565.79 293.00 C 563.73 292.72 561.64 292.89 559.59 292.61 C 561.57 291.88 563.73 292.15 565.77 291.68 C 565.98 275.77 565.93 259.84 565.79 243.92 C 563.76 243.66 561.71 243.82 559.70 243.61 C 561.62 242.85 563.74 243.12 565.74 242.65 C 566.02 226.71 565.89 210.75 565.81 194.81 C 563.83 194.67 561.84 194.76 559.87 194.64 C 561.67 193.68 563.76 193.95 565.72 193.65 C 566.06 177.71 565.86 161.74 565.82 145.79 C 563.85 145.59 561.88 145.62 559.92 145.46 C 561.57 144.10 563.92 144.93 565.87 144.44 C 565.86 128.54 565.95 112.63 565.83 96.73 C 563.92 96.51 562.00 96.59 560.09 96.46 C 561.32 94.74 564.04 96.03 565.86 95.41 C 565.89 79.49 565.92 63.57 565.84 47.66 C 564.27 46.92 560.69 48.57 560.36 46.60 C 562.18 46.50 564.01 46.56 565.84 46.35 C 565.88 35.94 565.99 25.52 565.79 15.11 C 544.20 14.78 522.60 15.07 501.00 14.97 C 494.54 15.14 488.05 14.61 481.62 15.23 C 481.15 16.64 481.09 18.14 480.57 19.53 C 480.31 18.05 480.04 16.58 479.78 15.10 C 452.16 14.91 424.52 14.84 396.91 15.13 C 396.29 16.19 397.36 18.94 395.55 18.74 C 395.41 17.53 395.25 16.33 395.09 15.13 C 367.06 14.87 339.00 14.86 310.97 15.13 C 310.78 16.46 310.60 17.79 310.44 19.13 C 309.21 18.18 309.56 16.46 309.11 15.14 C 281.53 14.84 253.93 14.91 226.35 15.10 C 226.08 16.60 225.80 18.10 225.51 19.59 C 225.07 18.14 224.77 16.66 224.44 15.18 C 221.64 14.82 218.81 14.99 216.00 14.96 C 190.80 15.09 165.59 14.77 140.40 15.12 C 139.78 16.37 141.02 19.23 139.08 19.31 C 138.94 17.90 138.80 16.50 138.64 15.10 C 116.44 14.80 94.22 15.06 72.00 14.97 C 66.63 15.06 61.25 14.75 55.89 15.14 C 55.50 16.52 55.42 18.03 54.62 19.27 C 54.40 17.91 54.18 16.55 53.95 15.19 C 52.64 15.05 51.33 14.95 50.01 14.89 C 49.69 14.72 49.03 14.38 48.71 14.21 Z" />
<path fill="#ffffff" d=" M 50.01 14.89 C 51.33 14.95 52.64 15.05 53.95 15.19 C 54.18 16.55 54.40 17.91 54.62 19.27 C 55.42 18.03 55.50 16.52 55.89 15.14 C 61.25 14.75 66.63 15.06 72.00 14.97 C 94.22 15.06 116.44 14.80 138.64 15.10 C 138.80 16.50 138.94 17.90 139.08 19.31 C 141.02 19.23 139.78 16.37 140.40 15.12 C 165.59 14.77 190.80 15.09 216.00 14.96 C 218.81 14.99 221.64 14.82 224.44 15.18 C 224.77 16.66 225.07 18.14 225.51 19.59 C 225.80 18.10 226.08 16.60 226.35 15.10 C 253.93 14.91 281.53 14.84 309.11 15.14 C 309.56 16.46 309.21 18.18 310.44 19.13 C 310.60 17.79 310.78 16.46 310.97 15.13 C 339.00 14.86 367.06 14.87 395.09 15.13 C 395.25 16.33 395.41 17.53 395.55 18.74 C 397.36 18.94 396.29 16.19 396.91 15.13 C 424.52 14.84 452.16 14.91 479.78 15.10 C 480.04 16.58 480.31 18.05 480.57 19.53 C 481.09 18.14 481.15 16.64 481.62 15.23 C 488.05 14.61 494.54 15.14 501.00 14.97 C 522.60 15.07 544.20 14.78 565.79 15.11 C 565.99 25.52 565.88 35.94 565.84 46.35 C 564.01 46.56 562.18 46.50 560.36 46.60 C 560.69 48.57 564.27 46.92 565.84 47.66 C 565.92 63.57 565.89 79.49 565.86 95.41 C 564.04 96.03 561.32 94.74 560.09 96.46 C 562.00 96.59 563.92 96.51 565.83 96.73 C 565.95 112.63 565.86 128.54 565.87 144.44 C 563.92 144.93 561.57 144.10 559.92 145.46 C 561.88 145.62 563.85 145.59 565.82 145.79 C 565.86 161.74 566.06 177.71 565.72 193.65 C 563.76 193.95 561.67 193.68 559.87 194.64 C 561.84 194.76 563.83 194.67 565.81 194.81 C 565.89 210.75 566.02 226.71 565.74 242.65 C 563.74 243.12 561.62 242.85 559.70 243.61 C 561.71 243.82 563.76 243.66 565.79 243.92 C 565.93 259.84 565.98 275.77 565.77 291.68 C 563.73 292.15 561.57 291.88 559.59 292.61 C 561.64 292.89 563.73 292.72 565.79 293.00 C 566.07 300.23 565.75 307.47 565.92 314.71 C 563.69 314.61 561.46 314.62 559.24 314.72 C 558.59 312.04 557.71 309.38 556.19 307.06 C 555.21 308.03 554.32 309.08 553.23 309.93 C 552.92 307.82 552.79 305.69 552.53 303.58 C 550.64 307.02 549.29 310.70 548.46 314.54 L 547.53 314.38 L 547.27 314.32 C 544.15 310.39 547.62 304.37 544.98 300.05 C 543.66 304.04 544.62 308.36 543.55 312.42 C 543.05 312.92 542.06 313.92 541.56 314.43 L 540.93 314.19 C 540.86 312.80 540.92 311.41 540.62 310.06 C 540.15 309.86 539.20 309.44 538.73 309.23 C 537.87 307.45 539.74 303.74 537.49 303.28 C 537.13 305.21 537.90 307.67 536.16 309.07 C 534.73 310.26 533.85 311.87 532.78 313.34 C 531.93 313.56 531.10 313.81 530.27 314.04 C 530.10 287.71 530.45 261.37 530.09 235.05 L 529.08 234.92 C 528.54 261.38 529.24 287.88 528.73 314.35 C 527.27 314.53 525.81 314.53 524.36 314.59 C 524.18 298.05 524.31 281.51 524.30 264.96 C 524.05 263.61 524.74 261.61 523.25 260.81 C 522.39 278.72 523.33 296.69 522.78 314.62 C 519.10 314.90 515.51 314.15 512.00 313.15 C 511.28 313.20 509.84 313.31 509.12 313.36 C 505.99 314.99 502.39 314.57 499.00 314.59 C 493.05 314.48 487.09 314.75 481.16 314.32 C 481.23 313.16 482.04 310.75 480.41 310.45 C 479.57 311.56 480.00 313.09 479.95 314.39 C 456.97 314.83 433.98 314.37 410.99 314.61 C 406.36 314.84 401.78 313.06 397.25 314.70 C 396.26 306.26 397.31 297.73 396.74 289.26 C 396.37 289.26 395.62 289.25 395.24 289.25 C 394.66 297.66 395.71 306.14 394.76 314.53 C 388.24 314.72 381.71 314.49 375.19 314.52 C 375.19 311.67 375.26 308.82 375.03 305.99 L 374.00 305.97 C 373.73 308.81 373.86 311.68 373.72 314.54 C 367.24 314.56 360.74 314.66 354.26 314.54 C 353.63 310.06 354.00 305.51 353.93 301.00 C 353.88 286.62 354.04 272.24 353.88 257.87 C 353.47 257.93 352.64 258.06 352.23 258.12 C 352.08 275.43 352.23 292.74 352.19 310.05 C 352.15 311.54 352.07 313.05 351.78 314.52 C 345.66 314.70 339.53 314.55 333.42 314.48 C 333.65 310.56 333.23 306.68 332.35 302.87 C 331.97 285.86 332.50 268.83 332.11 251.83 L 331.01 251.61 C 330.65 272.55 331.13 293.50 330.78 314.43 C 324.35 314.17 317.92 314.92 311.51 314.49 C 311.14 313.06 310.92 311.61 310.60 310.18 C 308.72 310.57 309.32 313.12 308.52 314.48 C 306.17 314.69 303.79 314.55 301.44 314.52 C 301.45 310.29 299.06 306.73 297.93 302.80 C 297.38 301.56 298.13 299.35 296.36 299.05 C 295.87 302.41 297.59 306.75 295.39 309.45 C 295.00 304.91 295.45 300.35 295.16 295.81 L 294.10 295.42 C 293.65 301.80 295.21 308.52 292.56 314.58 C 291.51 314.57 290.47 314.56 289.44 314.55 C 288.96 301.82 289.74 289.03 289.06 276.32 L 288.23 275.75 C 287.47 288.65 288.45 301.61 287.72 314.51 C 286.63 313.74 286.02 312.51 285.06 311.60 L 284.56 312.01 C 283.43 310.78 283.44 308.93 282.26 307.73 C 282.17 308.95 282.06 310.17 281.95 311.40 C 280.21 311.44 278.58 312.02 276.97 312.62 C 275.85 310.75 276.58 308.16 275.03 306.55 C 274.76 309.30 274.82 312.06 274.80 314.82 C 272.89 314.73 270.98 314.74 269.07 314.79 C 268.86 300.41 269.29 286.01 268.85 271.64 L 267.85 272.04 C 267.19 285.43 268.30 298.89 267.31 312.26 C 266.59 313.05 265.84 313.82 265.07 314.57 C 263.47 314.04 262.80 312.56 262.95 310.97 C 262.73 282.62 263.16 254.25 262.74 225.91 C 261.06 226.43 262.05 228.68 261.72 229.96 C 261.79 255.65 261.72 281.35 261.76 307.04 C 262.16 309.94 259.73 311.90 258.22 314.05 C 258.14 306.77 258.50 299.48 258.11 292.21 L 257.21 291.78 C 256.86 299.37 257.39 306.98 256.86 314.57 C 254.91 313.92 254.62 311.72 253.80 310.12 C 252.89 301.53 253.88 292.86 253.32 284.25 L 252.41 283.85 C 251.94 293.43 252.75 303.06 252.05 312.61 L 251.37 313.34 C 251.13 311.15 251.16 308.94 250.99 306.75 C 249.22 307.40 250.19 309.90 249.58 311.34 C 249.17 310.05 248.08 309.14 247.77 307.81 C 247.58 289.65 247.91 271.47 247.63 253.31 C 247.26 253.29 246.53 253.25 246.16 253.23 C 245.78 270.36 246.09 287.52 246.02 304.66 C 244.64 306.47 242.99 308.08 241.83 310.06 C 241.42 311.50 241.14 312.98 240.64 314.41 C 237.46 314.73 234.26 314.68 231.08 314.73 C 231.04 312.05 231.06 309.37 230.87 306.70 L 230.06 307.14 C 228.50 308.78 229.72 311.84 229.13 314.02 C 228.40 314.19 226.94 314.54 226.21 314.72 C 225.79 297.79 226.46 280.83 225.87 263.91 L 224.89 264.10 C 224.46 277.20 225.11 290.34 224.58 303.44 C 223.11 302.47 223.79 300.48 223.57 299.03 C 223.67 237.42 223.55 175.81 223.62 114.21 C 223.31 114.24 222.70 114.30 222.39 114.33 C 222.43 123.23 222.41 132.13 222.46 141.03 C 222.21 142.49 222.98 144.55 221.44 145.48 C 221.06 125.99 221.39 106.48 221.29 86.98 C 221.33 85.81 221.05 84.72 220.43 83.71 C 219.71 99.78 220.33 115.91 220.12 132.00 C 219.86 138.41 220.88 144.98 219.19 151.27 C 218.53 154.47 218.84 157.76 218.79 161.00 C 218.82 209.67 218.77 258.34 218.82 307.01 C 218.90 308.95 218.33 310.81 217.46 312.53 C 216.31 313.14 215.18 313.77 214.04 314.39 C 212.41 311.10 212.92 307.38 212.71 303.84 C 212.23 304.22 211.26 304.96 210.78 305.33 C 210.19 306.85 211.33 309.45 209.31 310.03 C 209.37 298.01 209.31 285.99 209.37 273.98 C 209.15 272.55 209.82 270.59 208.37 269.66 C 207.78 276.05 208.62 282.49 207.97 288.87 C 205.79 297.30 207.40 306.08 206.74 314.67 C 206.28 314.48 205.36 314.11 204.89 313.93 C 204.16 303.97 204.95 293.97 204.81 283.99 C 204.70 275.33 204.99 266.67 204.71 258.02 C 204.24 257.96 203.29 257.84 202.82 257.79 C 202.66 269.18 202.37 280.62 203.04 292.01 C 202.06 290.54 202.00 288.75 201.93 287.06 C 201.89 276.99 202.06 266.92 201.89 256.86 L 200.98 257.14 C 200.68 275.25 201.11 293.38 200.79 311.50 C 199.58 309.55 198.31 307.45 198.55 305.06 C 198.59 293.46 198.54 281.86 198.62 270.26 C 198.31 270.26 197.69 270.25 197.38 270.25 C 197.44 280.51 197.39 290.77 197.45 301.02 C 197.15 302.40 198.06 304.58 196.39 305.29 C 195.90 300.40 196.85 295.38 195.47 290.58 C 194.29 285.86 195.52 280.97 194.78 276.20 C 192.70 268.10 194.41 259.69 193.53 251.47 C 191.63 254.53 192.97 258.55 192.59 262.01 C 192.62 275.92 192.56 289.84 192.63 303.76 C 192.32 303.75 191.69 303.74 191.38 303.74 C 190.97 300.73 192.43 297.02 190.46 294.51 C 189.94 299.60 190.60 304.73 190.13 309.81 L 189.29 310.42 C 189.12 308.55 189.07 306.68 188.99 304.81 C 187.98 306.13 187.10 307.61 185.65 308.51 C 185.94 303.14 184.73 298.01 183.27 292.90 C 182.89 276.85 183.40 260.76 183.04 244.70 L 181.93 244.72 C 181.62 260.47 182.02 276.23 181.75 291.98 C 180.57 296.92 180.56 301.96 180.63 307.02 C 177.47 303.42 179.56 297.47 177.35 293.48 C 177.00 297.08 177.30 300.69 177.09 304.29 L 176.21 303.86 C 175.77 301.20 175.48 298.52 174.91 295.89 C 174.26 290.46 175.09 284.96 174.46 279.52 L 173.81 280.39 C 173.05 286.38 173.80 292.47 173.54 298.51 C 173.24 298.61 172.64 298.83 172.34 298.94 C 172.39 276.28 172.32 253.62 172.39 230.97 C 172.19 229.55 172.79 227.64 171.41 226.68 C 170.94 252.12 171.31 277.58 171.23 303.03 C 170.81 304.20 172.05 306.98 170.13 306.95 C 169.46 299.56 170.22 292.12 169.75 284.73 L 168.89 285.26 C 168.34 290.71 169.08 296.22 168.58 301.68 C 168.55 302.95 167.38 303.54 166.47 304.18 C 165.80 298.36 167.39 292.20 165.71 286.59 C 164.08 292.06 163.62 297.76 163.98 303.44 C 163.11 302.08 162.58 300.53 161.67 299.21 C 158.94 299.35 161.90 303.64 159.24 304.08 C 159.10 297.98 159.85 291.78 158.28 285.80 C 157.67 273.93 158.57 262.00 157.85 250.14 C 156.57 245.71 156.84 241.11 156.59 236.56 C 155.14 237.54 155.80 239.52 155.59 240.98 C 155.63 260.86 155.66 280.75 155.59 300.63 C 155.31 300.62 154.74 300.62 154.46 300.62 C 154.23 293.52 154.78 286.40 154.27 279.31 L 153.43 278.71 C 153.01 283.34 153.62 288.01 153.11 292.63 L 152.30 293.11 C 151.40 282.08 153.43 270.83 150.91 259.97 C 150.51 246.54 151.19 233.07 150.59 219.65 C 148.72 222.28 149.99 225.95 149.64 229.00 C 149.66 245.99 149.62 262.98 149.67 279.97 C 149.37 279.87 148.76 279.67 148.45 279.57 C 148.30 273.79 148.79 267.98 148.32 262.21 L 147.46 261.53 C 147.14 270.35 147.40 279.19 147.36 288.03 C 147.16 289.44 147.74 291.34 146.36 292.31 C 145.91 288.23 146.38 284.12 146.07 280.03 C 143.59 269.78 145.50 259.15 144.70 248.73 L 143.86 249.31 C 143.34 259.15 143.92 269.03 143.63 278.89 C 143.35 282.38 141.31 285.53 141.39 289.08 C 141.17 290.93 141.76 293.08 140.51 294.67 C 140.27 292.83 140.24 290.97 139.94 289.14 C 139.45 287.33 137.79 285.97 137.75 284.02 C 137.33 277.96 138.49 271.76 136.87 265.82 C 136.53 264.24 136.53 262.62 136.52 261.03 C 136.58 248.11 136.50 235.19 136.59 222.27 C 136.27 222.26 135.64 222.25 135.33 222.24 C 135.20 226.36 135.73 230.53 135.16 234.63 L 134.39 235.30 C 134.00 204.88 134.30 174.44 134.25 144.01 C 133.78 142.61 135.28 139.50 133.01 139.49 C 132.76 181.65 132.97 223.83 132.90 266.00 C 132.77 275.05 133.17 284.13 132.70 293.17 C 131.19 292.41 131.97 290.37 131.71 289.04 C 131.78 247.67 131.70 206.31 131.75 164.94 C 131.90 161.91 130.63 159.06 130.58 156.05 C 130.45 138.10 130.78 120.12 130.44 102.18 C 128.69 96.25 129.68 90.04 129.39 83.96 C 129.32 81.27 128.19 78.73 128.25 76.03 C 128.14 58.43 128.46 40.81 128.11 23.22 L 127.20 22.79 C 126.95 108.85 127.18 194.93 127.08 281.00 C 127.03 281.77 126.93 283.31 126.88 284.08 L 125.90 283.88 C 125.47 256.76 126.09 229.61 125.59 202.49 C 124.03 203.42 124.80 205.51 124.56 206.98 C 124.64 220.56 124.53 234.14 124.64 247.72 C 124.33 247.74 123.70 247.76 123.39 247.77 C 123.47 227.50 123.39 207.23 123.46 186.96 C 123.63 183.58 122.14 180.41 122.27 177.04 C 122.32 136.69 122.23 96.34 122.31 55.98 C 121.97 54.62 123.03 52.27 121.24 51.70 C 120.88 97.57 121.36 143.47 121.01 189.34 L 119.90 189.24 C 119.24 180.16 120.85 170.91 118.77 161.97 C 118.34 156.25 119.28 150.42 117.58 144.84 C 117.30 134.56 117.54 124.26 117.51 113.97 C 117.33 112.50 117.86 110.63 116.53 109.55 C 115.97 131.69 116.56 153.87 116.26 176.03 C 116.06 178.70 115.07 181.26 115.15 183.96 C 115.14 199.66 115.17 215.35 115.15 231.05 C 115.21 234.09 113.95 236.94 113.86 239.97 C 113.66 249.76 114.08 259.56 113.68 269.34 L 112.86 268.70 C 112.35 256.83 112.87 244.92 112.64 233.03 C 112.57 230.32 111.40 227.77 111.50 225.05 C 111.44 195.05 111.63 165.03 111.41 135.04 C 109.64 128.49 110.54 121.67 110.34 114.98 C 110.19 107.04 110.64 99.07 110.15 91.15 L 109.33 90.34 C 108.56 100.22 110.31 110.29 108.09 120.03 C 107.99 124.06 107.38 128.01 106.74 131.97 C 106.49 155.50 107.02 179.04 106.48 202.55 C 105.14 201.44 105.67 199.53 105.50 198.03 C 105.54 188.00 105.56 177.97 105.53 167.94 C 105.57 165.25 104.30 162.75 104.37 160.05 C 104.33 146.69 104.42 133.32 104.36 119.95 C 104.53 117.04 101.86 114.92 101.92 112.03 C 101.66 100.59 102.23 89.12 101.67 77.70 C 100.36 78.71 100.87 80.55 100.70 81.97 C 100.76 100.65 100.72 119.34 100.73 138.03 C 100.80 141.06 99.47 143.91 99.57 146.95 C 99.61 180.55 99.52 214.15 99.62 247.75 C 99.31 247.75 98.68 247.75 98.37 247.74 C 98.49 200.82 98.34 153.90 98.44 106.97 C 98.26 105.49 98.79 103.59 97.45 102.51 C 97.30 104.00 97.23 105.50 97.23 107.01 C 97.27 143.01 97.22 179.00 97.25 215.00 C 97.24 218.51 97.38 222.04 97.00 225.54 C 96.21 224.40 94.84 223.40 94.82 221.90 C 94.52 212.15 95.07 202.39 94.58 192.65 C 93.08 193.55 93.80 195.56 93.57 196.97 C 93.62 208.68 93.58 220.38 93.61 232.08 C 93.79 235.11 92.39 237.93 92.43 240.94 C 92.32 249.53 92.62 258.13 92.35 266.71 C 92.14 267.16 91.72 268.04 91.52 268.48 C 90.96 254.67 91.40 240.81 91.30 226.99 C 90.96 225.58 92.03 223.23 90.23 222.61 C 89.81 231.11 90.47 239.63 89.92 248.12 C 87.85 248.17 89.19 245.26 88.76 244.01 C 88.68 230.95 89.03 217.87 88.60 204.82 L 87.85 205.42 C 87.26 211.21 87.81 217.06 87.68 222.87 C 87.37 222.82 86.77 222.71 86.47 222.65 C 86.39 220.31 86.48 217.97 86.24 215.65 C 85.18 216.89 84.18 218.35 84.19 220.05 C 83.96 225.84 84.37 231.64 84.06 237.44 L 82.90 237.45 C 82.62 232.51 83.06 227.55 82.68 222.61 L 81.84 223.27 C 81.79 233.47 81.66 243.69 81.64 253.90 L 80.81 253.87 C 80.54 248.58 80.67 243.28 81.08 238.01 C 81.79 229.33 80.38 220.68 80.73 212.00 C 80.43 206.02 81.54 199.88 80.03 194.02 C 79.31 195.24 78.96 196.56 78.98 197.97 C 78.92 212.73 79.15 227.49 78.88 242.25 C 78.44 243.79 78.16 245.38 78.16 247.00 C 78.08 258.44 78.33 269.88 78.07 281.32 L 76.95 281.28 C 76.48 266.76 77.34 252.19 76.53 237.68 C 74.77 242.67 76.12 248.07 75.67 253.23 C 72.75 249.22 73.53 243.69 73.33 238.96 C 73.48 236.05 70.73 233.95 70.90 231.03 C 70.78 210.11 71.01 189.19 70.80 168.27 L 69.86 168.95 C 69.45 172.74 70.15 176.63 69.10 180.35 C 68.62 182.18 68.52 184.08 68.53 185.97 C 68.58 196.90 68.52 207.82 68.62 218.75 C 68.31 218.75 67.68 218.75 67.37 218.74 C 66.91 216.08 68.50 212.42 66.37 210.47 C 65.96 216.36 66.85 222.37 65.19 228.14 C 64.41 240.14 65.34 252.21 64.73 264.22 C 63.16 263.47 63.99 261.38 63.72 260.03 C 63.74 208.40 63.80 156.76 63.69 105.13 C 63.42 105.24 62.88 105.48 62.62 105.59 C 62.49 115.41 62.66 125.23 62.59 135.05 C 62.66 138.08 61.27 140.91 61.41 143.94 C 61.45 161.65 61.41 179.35 61.45 197.05 C 61.61 200.41 60.13 203.58 60.25 206.94 C 60.23 222.30 60.34 237.66 60.22 253.02 C 57.69 266.54 60.11 280.43 58.73 294.07 C 57.30 293.29 57.99 291.36 57.75 290.06 C 57.72 277.74 57.91 265.42 57.68 253.11 C 55.66 244.30 57.01 235.21 56.61 226.27 C 56.32 226.30 55.74 226.36 55.45 226.39 C 55.36 240.25 55.63 254.13 55.35 268.00 C 53.43 275.79 54.58 283.89 54.32 291.83 C 52.88 291.86 51.43 291.84 49.99 291.79 C 49.47 287.54 49.77 283.26 49.72 279.00 C 49.90 267.45 49.39 255.88 49.95 244.35 C 51.46 244.08 52.99 243.85 54.51 243.66 C 53.16 242.92 51.54 243.05 50.20 242.31 C 49.29 238.96 49.83 235.43 49.71 232.00 C 49.92 219.78 49.38 207.54 49.95 195.34 C 51.46 195.06 52.97 194.80 54.48 194.57 C 53.13 194.02 51.61 193.98 50.35 193.23 C 49.30 191.00 49.83 188.39 49.68 186.00 C 49.96 172.77 49.35 159.51 49.97 146.30 C 51.43 146.01 52.89 145.72 54.36 145.44 C 52.92 144.81 50.89 145.06 50.01 143.53 C 49.33 138.72 49.86 133.83 49.73 128.99 C 49.94 118.42 49.31 107.80 50.01 97.25 C 51.41 96.96 52.81 96.67 54.21 96.39 C 52.98 95.51 51.45 95.31 50.07 94.80 C 49.25 88.58 49.93 82.26 49.73 76.00 C 49.94 66.74 49.29 57.43 50.03 48.20 C 51.27 47.94 52.50 47.69 53.75 47.44 C 53.74 45.69 51.14 46.46 50.03 45.81 C 49.44 35.54 49.61 25.18 50.01 14.89 Z" />
<path fill="#000000" d=" M 127.20 22.79 L 128.11 23.22 C 128.46 40.81 128.14 58.43 128.25 76.03 C 128.19 78.73 129.32 81.27 129.39 83.96 C 129.68 90.04 128.69 96.25 130.44 102.18 C 130.78 120.12 130.45 138.10 130.58 156.05 C 130.63 159.06 131.90 161.91 131.75 164.94 C 131.70 206.31 131.78 247.67 131.71 289.04 C 131.97 290.37 131.19 292.41 132.70 293.17 C 133.17 284.13 132.77 275.05 132.90 266.00 C 132.97 223.83 132.76 181.65 133.01 139.49 C 135.28 139.50 133.78 142.61 134.25 144.01 C 134.30 174.44 134.00 204.88 134.39 235.30 L 135.16 234.63 C 135.73 230.53 135.20 226.36 135.33 222.24 C 135.64 222.25 136.27 222.26 136.59 222.27 C 136.50 235.19 136.58 248.11 136.52 261.03 C 136.53 262.62 136.53 264.24 136.87 265.82 C 138.49 271.76 137.33 277.96 137.75 284.02 C 137.79 285.97 139.45 287.33 139.94 289.14 C 140.24 290.97 140.27 292.83 140.51 294.67 C 141.76 293.08 141.17 290.93 141.39 289.08 C 141.31 285.53 143.35 282.38 143.63 278.89 C 143.92 269.03 143.34 259.15 143.86 249.31 L 144.70 248.73 C 145.50 259.15 143.59 269.78 146.07 280.03 C 146.38 284.12 145.91 288.23 146.36 292.31 C 147.74 291.34 147.16 289.44 147.36 288.03 C 147.40 279.19 147.14 270.35 147.46 261.53 L 148.32 262.21 C 148.79 267.98 148.30 273.79 148.45 279.57 C 148.76 279.67 149.37 279.87 149.67 279.97 C 149.62 262.98 149.66 245.99 149.64 229.00 C 149.99 225.95 148.72 222.28 150.59 219.65 C 151.19 233.07 150.51 246.54 150.91 259.97 C 153.43 270.83 151.40 282.08 152.30 293.11 L 153.11 292.63 C 153.62 288.01 153.01 283.34 153.43 278.71 L 154.27 279.31 C 154.78 286.40 154.23 293.52 154.46 300.62 C 154.74 300.62 155.31 300.62 155.59 300.63 C 155.66 280.75 155.63 260.86 155.59 240.98 C 155.80 239.52 155.14 237.54 156.59 236.56 C 156.84 241.11 156.57 245.71 157.85 250.14 C 158.57 262.00 157.67 273.93 158.28 285.80 C 159.85 291.78 159.10 297.98 159.24 304.08 C 161.90 303.64 158.94 299.35 161.67 299.21 C 162.58 300.53 163.11 302.08 163.98 303.44 C 163.62 297.76 164.08 292.06 165.71 286.59 C 167.39 292.20 165.80 298.36 166.47 304.18 C 167.38 303.54 168.55 302.95 168.58 301.68 C 169.08 296.22 168.34 290.71 168.89 285.26 L 169.75 284.73 C 170.22 292.12 169.46 299.56 170.13 306.95 C 172.05 306.98 170.81 304.20 171.23 303.03 C 171.31 277.58 170.94 252.12 171.41 226.68 C 172.79 227.64 172.19 229.55 172.39 230.97 C 172.32 253.62 172.39 276.28 172.34 298.94 C 172.64 298.83 173.24 298.61 173.54 298.51 C 173.80 292.47 173.05 286.38 173.81 280.39 L 174.46 279.52 C 175.09 284.96 174.26 290.46 174.91 295.89 C 175.48 298.52 175.77 301.20 176.21 303.86 L 177.09 304.29 C 177.30 300.69 177.00 297.08 177.35 293.48 C 179.56 297.47 177.47 303.42 180.63 307.02 C 180.56 301.96 180.57 296.92 181.75 291.98 C 182.02 276.23 181.62 260.47 181.93 244.72 L 183.04 244.70 C 183.40 260.76 182.89 276.85 183.27 292.90 C 184.73 298.01 185.94 303.14 185.65 308.51 C 187.10 307.61 187.98 306.13 188.99 304.81 C 189.07 306.68 189.12 308.55 189.29 310.42 L 190.13 309.81 C 190.60 304.73 189.94 299.60 190.46 294.51 C 192.43 297.02 190.97 300.73 191.38 303.74 C 191.69 303.74 192.32 303.75 192.63 303.76 C 192.56 289.84 192.62 275.92 192.59 262.01 C 192.97 258.55 191.63 254.53 193.53 251.47 C 194.41 259.69 192.70 268.10 194.78 276.20 C 195.52 280.97 194.29 285.86 195.47 290.58 C 196.85 295.38 195.90 300.40 196.39 305.29 C 198.06 304.58 197.15 302.40 197.45 301.02 C 197.39 290.77 197.44 280.51 197.38 270.25 C 197.69 270.25 198.31 270.26 198.62 270.26 C 198.54 281.86 198.59 293.46 198.55 305.06 C 198.31 307.45 199.58 309.55 200.79 311.50 C 201.11 293.38 200.68 275.25 200.98 257.14 L 201.89 256.86 C 202.06 266.92 201.89 276.99 201.93 287.06 C 202.00 288.75 202.06 290.54 203.04 292.01 C 204.91 295.38 204.31 299.30 204.38 303.00 C 204.32 306.98 204.55 311.00 203.96 314.96 C 199.34 315.65 194.65 315.27 190.00 315.31 C 149.67 315.30 109.34 315.30 69.00 315.31 C 64.32 315.28 59.62 315.62 54.97 314.97 C 54.30 307.27 55.52 299.51 54.32 291.83 C 54.58 283.89 53.43 275.79 55.35 268.00 C 55.63 254.13 55.36 240.25 55.45 226.39 C 55.74 226.36 56.32 226.30 56.61 226.27 C 57.01 235.21 55.66 244.30 57.68 253.11 C 57.91 265.42 57.72 277.74 57.75 290.06 C 57.99 291.36 57.30 293.29 58.73 294.07 C 60.11 280.43 57.69 266.54 60.22 253.02 C 60.34 237.66 60.23 222.30 60.25 206.94 C 60.13 203.58 61.61 200.41 61.45 197.05 C 61.41 179.35 61.45 161.65 61.41 143.94 C 61.27 140.91 62.66 138.08 62.59 135.05 C 62.66 125.23 62.49 115.41 62.62 105.59 C 62.88 105.48 63.42 105.24 63.69 105.13 C 63.80 156.76 63.74 208.40 63.72 260.03 C 63.99 261.38 63.16 263.47 64.73 264.22 C 65.34 252.21 64.41 240.14 65.19 228.14 C 66.85 222.37 65.96 216.36 66.37 210.47 C 68.50 212.42 66.91 216.08 67.37 218.74 C 67.68 218.75 68.31 218.75 68.62 218.75 C 68.52 207.82 68.58 196.90 68.53 185.97 C 68.52 184.08 68.62 182.18 69.10 180.35 C 70.15 176.63 69.45 172.74 69.86 168.95 L 70.80 168.27 C 71.01 189.19 70.78 210.11 70.90 231.03 C 70.73 233.95 73.48 236.05 73.33 238.96 C 73.53 243.69 72.75 249.22 75.67 253.23 C 76.12 248.07 74.77 242.67 76.53 237.68 C 77.34 252.19 76.48 266.76 76.95 281.28 L 78.07 281.32 C 78.33 269.88 78.08 258.44 78.16 247.00 C 78.16 245.38 78.44 243.79 78.88 242.25 C 80.78 245.85 80.12 249.92 80.07 253.81 L 80.81 253.87 L 81.64 253.90 C 81.66 243.69 81.79 233.47 81.84 223.27 L 82.68 222.61 C 83.06 227.55 82.62 232.51 82.90 237.45 L 84.06 237.44 C 84.37 231.64 83.96 225.84 84.19 220.05 C 84.18 218.35 85.18 216.89 86.24 215.65 C 86.48 217.97 86.39 220.31 86.47 222.65 C 86.77 222.71 87.37 222.82 87.68 222.87 C 87.81 217.06 87.26 211.21 87.85 205.42 L 88.60 204.82 C 89.03 217.87 88.68 230.95 88.76 244.01 C 89.19 245.26 87.85 248.17 89.92 248.12 C 90.47 239.63 89.81 231.11 90.23 222.61 C 92.03 223.23 90.96 225.58 91.30 226.99 C 91.40 240.81 90.96 254.67 91.52 268.48 C 91.72 268.04 92.14 267.16 92.35 266.71 C 92.62 258.13 92.32 249.53 92.43 240.94 C 92.39 237.93 93.79 235.11 93.61 232.08 C 93.58 220.38 93.62 208.68 93.57 196.97 C 93.80 195.56 93.08 193.55 94.58 192.65 C 95.07 202.39 94.52 212.15 94.82 221.90 C 94.84 223.40 96.21 224.40 97.00 225.54 C 97.38 222.04 97.24 218.51 97.25 215.00 C 97.22 179.00 97.27 143.01 97.23 107.01 C 97.23 105.50 97.30 104.00 97.45 102.51 C 98.79 103.59 98.26 105.49 98.44 106.97 C 98.34 153.90 98.49 200.82 98.37 247.74 C 98.68 247.75 99.31 247.75 99.62 247.75 C 99.52 214.15 99.61 180.55 99.57 146.95 C 99.47 143.91 100.80 141.06 100.73 138.03 C 100.72 119.34 100.76 100.65 100.70 81.97 C 100.87 80.55 100.36 78.71 101.67 77.70 C 102.23 89.12 101.66 100.59 101.92 112.03 C 101.86 114.92 104.53 117.04 104.36 119.95 C 104.42 133.32 104.33 146.69 104.37 160.05 C 104.30 162.75 105.57 165.25 105.53 167.94 C 105.56 177.97 105.54 188.00 105.50 198.03 C 105.67 199.53 105.14 201.44 106.48 202.55 C 107.02 179.04 106.49 155.50 106.74 131.97 C 107.38 128.01 107.99 124.06 108.09 120.03 C 110.31 110.29 108.56 100.22 109.33 90.34 L 110.15 91.15 C 110.64 99.07 110.19 107.04 110.34 114.98 C 110.54 121.67 109.64 128.49 111.41 135.04 C 111.63 165.03 111.44 195.05 111.50 225.05 C 111.40 227.77 112.57 230.32 112.64 233.03 C 112.87 244.92 112.35 256.83 112.86 268.70 L 113.68 269.34 C 114.08 259.56 113.66 249.76 113.86 239.97 C 113.95 236.94 115.21 234.09 115.15 231.05 C 115.17 215.35 115.14 199.66 115.15 183.96 C 115.07 181.26 116.06 178.70 116.26 176.03 C 116.56 153.87 115.97 131.69 116.53 109.55 C 117.86 110.63 117.33 112.50 117.51 113.97 C 117.54 124.26 117.30 134.56 117.58 144.84 C 119.28 150.42 118.34 156.25 118.77 161.97 C 120.85 170.91 119.24 180.16 119.90 189.24 L 121.01 189.34 C 121.36 143.47 120.88 97.57 121.24 51.70 C 123.03 52.27 121.97 54.62 122.31 55.98 C 122.23 96.34 122.32 136.69 122.27 177.04 C 122.14 180.41 123.63 183.58 123.46 186.96 C 123.39 207.23 123.47 227.50 123.39 247.77 C 123.70 247.76 124.33 247.74 124.64 247.72 C 124.53 234.14 124.64 220.56 124.56 206.98 C 124.80 205.51 124.03 203.42 125.59 202.49 C 126.09 229.61 125.47 256.76 125.90 283.88 L 126.88 284.08 C 126.93 283.31 127.03 281.77 127.08 281.00 C 127.18 194.93 126.95 108.85 127.20 22.79 Z" />
<path fill="#010101" d=" M 18.97 44.85 C 20.23 43.72 21.77 42.96 23.15 41.98 C 23.35 44.94 23.39 47.92 23.19 50.88 L 22.21 51.08 C 22.02 48.77 22.22 46.45 22.04 44.14 C 20.99 44.27 19.96 44.51 18.97 44.85 Z" />
<path fill="#010101" d=" M 28.40 42.27 C 30.23 42.02 32.41 41.83 33.80 43.29 C 34.00 45.43 34.00 47.60 33.86 49.75 C 32.05 51.45 27.67 51.88 26.80 49.00 C 26.85 46.73 25.91 43.60 28.40 42.27 Z" />
<path fill="#010101" d=" M 35.28 43.34 C 36.67 41.84 38.91 41.91 40.76 42.25 C 43.17 43.15 42.23 46.10 42.39 48.06 C 42.75 51.77 37.12 51.78 35.25 49.68 C 35.13 47.57 35.13 45.45 35.28 43.34 Z" />
<path fill="#ffffff" d=" M 28.20 43.07 C 29.70 42.87 31.24 42.88 32.72 43.21 C 32.81 45.38 32.82 47.55 32.77 49.72 C 31.24 50.25 29.58 50.12 27.99 50.02 C 27.84 47.70 27.92 45.37 28.20 43.07 Z" />
<path fill="#ffffff" d=" M 36.54 42.98 C 38.07 42.88 39.60 42.88 41.13 42.97 C 41.27 45.32 41.27 47.67 41.12 50.01 C 39.59 50.11 38.06 50.11 36.53 50.01 C 36.27 47.68 36.27 45.31 36.54 42.98 Z" />
<path fill="#909090" d=" M 14.15 47.16 C 15.10 46.00 18.08 47.03 16.83 48.62 C 15.89 49.84 12.94 48.73 14.15 47.16 Z" />
<path fill="#000000" d=" M 220.43 83.71 C 221.05 84.72 221.33 85.81 221.29 86.98 C 221.39 106.48 221.06 125.99 221.44 145.48 C 222.98 144.55 222.21 142.49 222.46 141.03 C 222.41 132.13 222.43 123.23 222.39 114.33 C 222.70 114.30 223.31 114.24 223.62 114.21 C 223.55 175.81 223.67 237.42 223.57 299.03 C 223.79 300.48 223.11 302.47 224.58 303.44 C 225.11 290.34 224.46 277.20 224.89 264.10 L 225.87 263.91 C 226.46 280.83 225.79 297.79 226.21 314.72 C 222.92 315.43 219.52 315.55 216.17 315.26 C 216.57 314.33 217.00 313.42 217.46 312.53 C 218.33 310.81 218.90 308.95 218.82 307.01 C 218.77 258.34 218.82 209.67 218.79 161.00 C 218.84 157.76 218.53 154.47 219.19 151.27 C 220.88 144.98 219.86 138.41 220.12 132.00 C 220.33 115.91 219.71 99.78 220.43 83.71 Z" />
<path fill="#010101" d=" M 19.49 93.55 C 20.65 92.63 21.88 91.81 23.13 91.01 C 23.35 93.97 23.40 96.95 23.19 99.92 L 22.19 100.08 C 22.06 97.79 22.17 95.50 22.09 93.21 C 21.44 93.30 20.14 93.47 19.49 93.55 Z" />
<path fill="#010101" d=" M 27.77 93.51 C 29.01 92.69 30.20 91.77 31.53 91.08 C 31.61 93.97 31.64 96.88 31.63 99.78 C 31.31 99.78 30.69 99.79 30.37 99.79 C 30.36 97.71 30.46 95.62 30.37 93.54 C 29.72 93.53 28.42 93.52 27.77 93.51 Z" />
<path fill="#010101" d=" M 35.33 92.35 C 36.66 90.82 38.84 91.19 40.64 91.27 C 41.05 91.72 41.88 92.62 42.30 93.07 C 42.10 95.24 43.47 98.77 40.79 99.80 C 38.95 100.11 36.61 100.28 35.25 98.72 C 35.12 96.60 35.12 94.46 35.33 92.35 Z" />
<path fill="#ffffff" d=" M 36.62 91.92 C 38.02 91.93 39.42 92.01 40.82 92.17 C 41.51 94.38 41.18 96.75 41.13 99.03 C 39.59 99.13 38.06 99.13 36.53 99.03 C 36.27 96.67 36.23 94.26 36.62 91.92 Z" />
<path fill="#909090" d=" M 14.16 96.23 C 15.10 95.04 18.07 96.10 16.83 97.69 C 15.89 98.90 12.93 97.81 14.16 96.23 Z" />
<path fill="#010101" d=" M 26.01 141.66 C 28.26 140.29 31.63 139.39 33.77 141.38 C 35.30 145.06 30.85 145.68 29.32 147.98 C 30.91 148.07 32.51 148.16 34.11 148.24 C 32.24 149.79 29.08 148.54 26.72 148.90 C 28.86 146.34 34.11 145.54 32.75 141.26 C 30.49 141.07 28.25 141.45 26.01 141.66 Z" />
<path fill="#010101" d=" M 36.85 140.09 C 38.83 140.15 41.21 139.98 42.29 142.04 C 42.41 143.37 42.44 144.70 42.39 146.03 C 42.97 149.23 38.33 149.69 36.43 148.39 C 37.99 148.24 39.55 148.09 41.11 147.94 C 41.26 145.93 41.27 143.91 41.19 141.90 C 39.91 140.93 38.08 141.17 36.85 140.09 Z" />
<path fill="#010101" d=" M 19.46 142.55 C 20.59 141.66 21.80 140.84 23.16 140.34 C 23.35 143.19 23.40 146.05 23.19 148.91 L 22.19 149.12 C 22.06 146.85 22.19 144.57 22.07 142.30 C 21.42 142.36 20.11 142.49 19.46 142.55 Z" />
<path fill="#3f3f3f" d=" M 35.51 141.48 C 36.92 142.43 36.92 146.73 35.47 147.65 C 34.81 145.77 34.83 143.35 35.51 141.48 Z" />
<path fill="#909090" d=" M 14.17 145.29 C 15.11 144.07 18.06 145.16 16.83 146.74 C 15.89 147.94 12.93 146.86 14.17 145.29 Z" />
<path fill="#010101" d=" M 26.73 190.49 C 28.63 189.06 31.78 188.72 33.62 190.35 C 33.81 192.49 33.77 194.67 33.84 196.82 C 31.92 198.64 28.43 198.13 26.46 196.56 C 28.51 196.88 30.27 197.23 32.43 197.22 C 32.44 196.38 32.45 194.70 32.46 193.86 C 31.66 193.86 30.07 193.84 29.27 193.84 L 29.16 193.14 C 31.37 193.35 33.63 193.23 32.75 190.28 C 30.74 190.22 28.74 190.43 26.73 190.49 Z" />
<path fill="#010101" d=" M 35.37 190.37 C 36.72 188.99 38.82 189.39 40.55 189.38 C 40.99 189.79 41.85 190.63 42.28 191.05 C 42.41 192.98 42.58 194.97 42.15 196.87 C 40.58 198.63 37.70 197.95 35.68 197.40 C 34.70 195.26 35.27 192.67 35.37 190.37 Z" />
<path fill="#010101" d=" M 19.81 191.36 C 20.90 190.68 21.86 189.66 23.20 189.48 C 23.34 192.28 23.39 195.10 23.19 197.91 L 22.21 198.21 C 22.08 196.02 22.17 193.83 22.01 191.65 C 21.46 191.58 20.36 191.43 19.81 191.36 Z" />
<path fill="#ffffff" d=" M 36.39 190.29 C 37.99 190.16 39.58 190.22 41.16 190.48 C 41.25 192.69 41.26 194.92 41.13 197.14 C 39.60 197.23 38.07 197.23 36.54 197.13 C 36.28 194.86 36.32 192.57 36.39 190.29 Z" />
<path fill="#909090" d=" M 14.16 194.37 C 15.09 193.15 18.05 194.24 16.84 195.82 C 15.90 196.99 12.91 195.96 14.16 194.37 Z" />
<path fill="#585858" d=" M 78.98 197.97 C 78.96 196.56 79.31 195.24 80.03 194.02 C 81.54 199.88 80.43 206.02 80.73 212.00 C 80.38 220.68 81.79 229.33 81.08 238.01 C 80.67 243.28 80.54 248.58 80.81 253.87 L 80.07 253.81 C 80.12 249.92 80.78 245.85 78.88 242.25 C 79.15 227.49 78.92 212.73 78.98 197.97 Z" />
<path fill="#000000" d=" M 261.72 229.96 C 262.05 228.68 261.06 226.43 262.74 225.91 C 263.16 254.25 262.73 282.62 262.95 310.97 C 262.80 312.56 263.47 314.04 265.07 314.57 C 262.48 315.78 259.45 315.77 256.86 314.57 C 257.39 306.98 256.86 299.37 257.21 291.78 L 258.11 292.21 C 258.50 299.48 258.14 306.77 258.22 314.05 C 259.73 311.90 262.16 309.94 261.76 307.04 C 261.72 281.35 261.79 255.65 261.72 229.96 Z" />
<path fill="#101010" d=" M 529.08 234.92 L 530.09 235.05 C 530.45 261.37 530.10 287.71 530.27 314.04 C 529.88 314.12 529.11 314.27 528.73 314.35 C 529.24 287.88 528.54 261.38 529.08 234.92 Z" />
<path fill="#010101" d=" M 35.42 239.39 C 37.29 237.86 40.50 237.99 42.30 239.60 C 42.47 241.82 42.46 244.06 42.25 246.28 C 40.07 247.09 37.68 247.00 35.44 246.51 C 35.08 244.16 35.06 241.73 35.42 239.39 Z" />
<path fill="#010101" d=" M 19.91 240.29 C 20.95 239.61 21.98 238.88 23.16 238.47 C 23.35 241.28 23.40 244.10 23.20 246.92 L 22.21 247.26 C 21.49 244.91 23.71 240.13 19.91 240.29 Z" />
<path fill="#000000" d=" M 29.14 241.96 C 29.77 240.89 30.46 239.86 31.16 238.84 C 31.40 240.41 31.66 241.97 31.87 243.54 L 31.42 243.55 C 30.58 243.13 29.82 242.60 29.14 241.96 Z" />
<path fill="#585858" d=" M 31.16 238.84 C 31.59 238.80 32.46 238.71 32.89 238.66 C 32.88 241.38 33.96 244.27 32.99 246.90 C 31.02 246.49 29.05 246.04 27.13 245.44 C 27.34 244.64 27.62 243.86 27.98 243.11 C 29.11 243.37 30.26 243.52 31.42 243.55 L 31.87 243.54 C 31.66 241.97 31.40 240.41 31.16 238.84 Z" />
<path fill="#ffffff" d=" M 36.40 239.36 C 38.01 239.28 39.63 239.31 41.24 239.43 C 41.25 241.65 41.26 243.88 41.11 246.10 C 39.58 246.22 38.06 246.26 36.53 246.21 C 36.29 243.93 36.31 241.64 36.40 239.36 Z" />
<path fill="#585858" d=" M 14.23 243.36 C 15.16 242.04 17.96 243.32 16.81 244.85 C 15.86 246.09 12.92 244.92 14.23 243.36 Z" />
<path fill="#0e0e0e" d=" M 331.01 251.61 L 332.11 251.83 C 332.50 268.83 331.97 285.86 332.35 302.87 C 333.23 306.68 333.65 310.56 333.42 314.48 C 332.53 314.48 331.65 314.46 330.78 314.43 C 331.13 293.50 330.65 272.55 331.01 251.61 Z" />
<path fill="#585858" d=" M 246.16 253.23 C 246.53 253.25 247.26 253.29 247.63 253.31 C 247.91 271.47 247.58 289.65 247.77 307.81 C 247.15 306.78 246.55 305.73 246.02 304.66 C 246.09 287.52 245.78 270.36 246.16 253.23 Z" />
<path fill="#191919" d=" M 523.25 260.81 C 524.74 261.61 524.05 263.61 524.30 264.96 C 524.31 281.51 524.18 298.05 524.36 314.59 C 523.97 314.60 523.17 314.61 522.78 314.62 C 523.33 296.69 522.39 278.72 523.25 260.81 Z" />
<path fill="#000000" d=" M 208.37 269.66 C 209.82 270.59 209.15 272.55 209.37 273.98 C 209.31 285.99 209.37 298.01 209.31 310.03 C 211.33 309.45 210.19 306.85 210.78 305.33 C 211.26 304.96 212.23 304.22 212.71 303.84 C 212.92 307.38 212.41 311.10 214.04 314.39 C 211.79 315.69 209.10 315.65 206.74 314.67 C 207.40 306.08 205.79 297.30 207.97 288.87 C 208.62 282.49 207.78 276.05 208.37 269.66 Z" />
<path fill="#1d1d1d" d=" M 267.85 272.04 L 268.85 271.64 C 269.29 286.01 268.86 300.41 269.07 314.79 C 268.57 314.80 267.57 314.81 267.08 314.82 C 267.13 314.18 267.25 312.90 267.31 312.26 C 268.30 298.89 267.19 285.43 267.85 272.04 Z" />
<path fill="#1e1e1e" d=" M 288.23 275.75 L 289.06 276.32 C 289.74 289.03 288.96 301.82 289.44 314.55 C 289.01 314.54 288.15 314.52 287.72 314.51 C 288.45 301.61 287.47 288.65 288.23 275.75 Z" />
<path fill="#000000" d=" M 252.41 283.85 L 253.32 284.25 C 253.88 292.86 252.89 301.53 253.80 310.12 C 254.01 311.72 254.16 313.34 254.15 314.96 C 250.14 315.58 246.01 315.66 242.01 314.95 C 241.84 313.32 241.79 311.69 241.83 310.06 C 242.99 308.08 244.64 306.47 246.02 304.66 C 246.55 305.73 247.15 306.78 247.77 307.81 C 248.08 309.14 249.17 310.05 249.58 311.34 C 250.19 309.90 249.22 307.40 250.99 306.75 C 251.16 308.94 251.13 311.15 251.37 313.34 L 252.05 312.61 C 252.75 303.06 251.94 293.43 252.41 283.85 Z" />
<path fill="#010101" d=" M 28.52 287.56 C 30.23 287.46 31.95 287.45 33.67 287.47 C 33.66 287.71 33.64 288.19 33.63 288.42 C 32.39 288.43 31.16 288.46 29.92 288.50 C 29.51 289.11 28.68 290.35 28.27 290.97 C 30.18 291.31 32.53 290.66 33.96 292.33 C 35.27 296.98 28.63 297.68 26.59 294.59 C 28.54 295.22 30.55 295.59 32.60 295.55 C 32.56 294.65 32.48 292.84 32.44 291.94 C 30.46 291.91 28.53 292.28 26.60 292.61 C 27.13 290.89 27.78 289.21 28.52 287.56 Z" />
<path fill="#010101" d=" M 35.45 288.39 C 37.34 286.95 40.42 287.15 42.29 288.59 C 42.46 290.56 42.46 292.56 42.32 294.55 C 41.05 297.13 37.62 296.64 35.49 295.55 C 35.03 293.20 35.07 290.75 35.45 288.39 Z" />
<path fill="#010101" d=" M 19.02 289.50 C 20.40 288.91 21.76 288.27 23.18 287.78 C 23.34 290.51 23.39 293.24 23.20 295.97 L 22.20 296.31 C 22.08 294.07 22.17 291.82 22.03 289.59 C 21.28 289.57 19.77 289.52 19.02 289.50 Z" />
<path fill="#ffffff" d=" M 36.41 288.41 C 38.02 288.35 39.63 288.39 41.24 288.50 C 41.25 290.77 41.25 293.04 41.13 295.32 C 39.57 295.45 38.00 295.50 36.44 295.47 C 36.31 293.11 36.32 290.76 36.41 288.41 Z" />
<path fill="#555555" d=" M 14.41 293.04 C 15.64 292.15 16.37 292.38 16.59 293.73 C 15.35 294.59 14.62 294.36 14.41 293.04 Z" />
<path fill="#ffffff" d=" M 49.89 293.05 C 51.27 292.97 52.65 292.97 54.04 293.05 C 53.92 300.25 54.51 307.50 53.74 314.66 C 52.57 314.71 51.41 314.69 50.24 314.61 C 49.16 307.53 49.81 300.21 49.89 293.05 Z" />
<path fill="#000000" d=" M 294.10 295.42 L 295.16 295.81 C 295.45 300.35 295.00 304.91 295.39 309.45 C 297.59 306.75 295.87 302.41 296.36 299.05 C 298.13 299.35 297.38 301.56 297.93 302.80 C 299.06 306.73 301.45 310.29 301.44 314.52 C 298.53 315.47 295.48 315.44 292.56 314.58 C 295.21 308.52 293.65 301.80 294.10 295.42 Z" />
<path fill="#000000" d=" M 537.49 303.28 C 539.74 303.74 537.87 307.45 538.73 309.23 C 539.20 309.44 540.15 309.86 540.62 310.06 C 540.92 311.41 540.86 312.80 540.93 314.19 C 538.25 315.60 535.13 315.82 532.24 315.03 C 532.37 314.61 532.64 313.76 532.78 313.34 C 533.85 311.87 534.73 310.26 536.16 309.07 C 537.90 307.67 537.13 305.21 537.49 303.28 Z" />
<path fill="#000000" d=" M 548.46 314.54 C 549.29 310.70 550.64 307.02 552.53 303.58 C 552.79 305.69 552.92 307.82 553.23 309.93 C 554.32 309.08 555.21 308.03 556.19 307.06 C 557.71 309.38 558.59 312.04 559.24 314.72 C 555.68 315.31 551.96 315.61 548.46 314.54 Z" />
<path fill="#030303" d=" M 374.00 305.97 L 375.03 305.99 C 375.26 308.82 375.19 311.67 375.19 314.52 C 374.82 314.52 374.09 314.53 373.72 314.54 C 373.86 311.68 373.73 308.81 374.00 305.97 Z" />
<path fill="#414141" d=" M 230.06 307.14 L 230.87 306.70 C 231.06 309.37 231.04 312.05 231.08 314.73 L 230.16 314.71 C 229.84 312.20 229.94 309.66 230.06 307.14 Z" />
<path fill="#010101" d=" M 275.03 306.55 C 276.58 308.16 275.85 310.75 276.97 312.62 C 278.58 312.02 280.21 311.44 281.95 311.40 C 282.06 310.17 282.17 308.95 282.26 307.73 C 283.44 308.93 283.43 310.78 284.56 312.01 C 284.66 312.75 284.84 314.23 284.94 314.98 C 281.58 315.65 278.16 315.23 274.80 314.82 C 274.82 312.06 274.76 309.30 275.03 306.55 Z" />
<path fill="#313131" d=" M 480.41 310.45 C 482.04 310.75 481.23 313.16 481.16 314.32 C 480.86 314.34 480.25 314.37 479.95 314.39 C 480.00 313.09 479.57 311.56 480.41 310.45 Z" />
<path fill="#2a2a2a" d=" M 541.56 314.43 C 542.06 313.92 543.05 312.92 543.55 312.42 C 543.95 313.63 542.93 315.46 541.56 314.43 Z" />
<path fill="#000000" d=" M 509.12 313.36 C 509.84 313.31 511.28 313.20 512.00 313.15 C 512.70 315.88 508.37 316.32 509.12 313.36 Z" />
<path fill="#060606" d=" M 547.27 314.32 L 547.53 314.38 C 547.47 314.36 547.34 314.33 547.27 314.32 Z" />
<path fill="#010101" d=" M 51.43 320.55 C 53.39 319.74 56.19 319.62 57.75 321.28 C 57.88 323.40 57.88 325.53 57.66 327.65 C 56.34 329.18 54.16 328.77 52.37 328.71 C 51.95 328.27 51.12 327.38 50.71 326.94 C 50.81 324.87 49.91 322.21 51.43 320.55 Z" />
<path fill="#010101" d=" M 136.06 322.14 C 137.39 321.36 138.74 320.62 140.09 319.87 C 140.26 322.84 140.31 325.83 139.96 328.80 C 137.37 328.41 139.61 324.35 138.83 322.51 C 138.14 322.42 136.75 322.23 136.06 322.14 Z" />
<path fill="#010101" d=" M 220.81 321.57 C 222.82 319.87 225.96 319.43 228.21 320.92 C 228.48 321.76 228.57 322.62 228.47 323.51 C 227.04 324.96 225.30 326.05 223.71 327.31 C 225.20 327.98 226.90 328.01 228.36 328.76 C 225.89 328.86 223.42 328.73 220.96 328.66 C 222.91 326.93 225.13 325.54 227.11 323.84 C 227.14 323.11 227.21 321.64 227.25 320.91 C 225.07 320.80 222.94 321.24 220.81 321.57 Z" />
<path fill="#010101" d=" M 305.55 321.54 C 307.43 319.79 310.94 319.29 312.85 321.21 C 312.81 323.37 312.96 325.55 312.82 327.71 C 310.85 329.41 307.44 329.15 305.63 327.29 C 307.68 327.59 309.74 328.03 311.83 327.81 C 311.95 326.66 311.87 325.54 311.60 324.44 C 310.71 324.09 309.84 323.72 308.98 323.34 C 309.74 323.33 311.26 323.31 312.02 323.30 C 312.65 319.38 307.74 321.36 305.55 321.54 Z" />
<path fill="#010101" d=" M 391.97 326.88 C 393.64 324.42 394.76 321.24 397.59 319.87 C 397.23 322.82 399.39 326.19 397.39 328.78 C 397.00 328.39 396.22 327.61 395.83 327.21 C 394.54 327.05 393.26 326.94 391.97 326.88 Z" />
<path fill="#010101" d=" M 476.16 324.68 C 476.82 323.17 477.09 321.30 478.32 320.15 C 480.06 320.38 482.76 319.21 483.90 320.71 C 481.84 321.24 478.02 319.86 478.45 323.24 C 480.16 323.57 482.11 323.32 483.57 324.47 C 483.68 325.49 483.69 326.51 483.61 327.53 C 481.60 329.73 478.03 328.88 475.87 327.35 C 478.03 327.57 480.16 327.96 482.33 328.15 C 482.38 327.20 482.49 325.29 482.54 324.34 C 480.40 324.25 478.28 324.53 476.16 324.68 Z" />
<path fill="#ffffff" d=" M 51.87 320.96 C 53.40 320.86 54.94 320.86 56.47 320.96 C 56.72 323.32 56.77 325.73 56.38 328.09 C 54.99 328.05 53.60 327.96 52.22 327.81 C 51.42 325.64 51.85 323.22 51.87 320.96 Z" />
<path fill="#ffffff" d=" M 395.35 324.13 C 396.77 324.73 396.76 325.36 395.31 326.00 C 393.92 325.38 393.94 324.76 395.35 324.13 Z" />
<path fill="#010101" d=" M 560.11 337.09 C 561.13 335.49 563.02 335.34 564.41 336.56 C 564.88 337.86 564.76 339.29 564.74 340.65 C 563.77 341.46 562.03 342.57 560.93 341.39 C 561.53 341.23 562.72 340.90 563.32 340.74 C 562.09 339.63 559.31 339.26 560.11 337.09 Z" />
<path fill="#ffffff" d=" M 561.56 337.15 C 563.00 336.74 563.47 337.23 562.99 338.63 C 561.52 339.04 561.04 338.55 561.56 337.15 Z" />
<path fill="#010101" d=" M 544.20 343.24 C 545.40 342.32 546.79 341.70 548.03 340.82 C 548.22 343.82 548.25 346.85 547.94 349.85 C 545.33 349.36 547.57 345.33 546.77 343.45 C 546.13 343.40 544.84 343.30 544.20 343.24 Z" />
<path fill="#010101" d=" M 551.80 342.14 C 553.59 340.46 557.01 340.54 558.72 342.31 C 558.84 344.41 558.84 346.53 558.66 348.64 C 556.89 350.34 552.66 350.72 551.65 348.04 C 551.55 346.07 551.43 344.07 551.80 342.14 Z" />
<path fill="#ffffff" d=" M 552.85 341.98 C 554.38 341.87 555.91 341.87 557.45 341.98 C 557.69 344.32 557.69 346.69 557.42 349.03 C 555.88 349.12 554.35 349.13 552.83 349.04 C 552.69 346.69 552.70 344.32 552.85 341.98 Z" />
<path fill="#010101" d=" M 531.15 343.20 C 532.32 343.96 533.22 345.56 534.69 345.65 C 535.43 344.78 536.13 343.88 536.88 343.02 C 536.48 344.28 535.96 345.52 535.64 346.81 C 536.03 347.95 536.43 349.09 536.83 350.23 C 535.98 349.28 535.26 348.24 534.52 347.23 C 533.51 348.24 532.54 349.29 531.53 350.30 C 533.06 347.95 533.07 345.31 531.15 343.20 Z" />
</svg>
