<?xml version="1.0" encoding="UTF-8" standalone="no"?>
<!-- Created with Inkscape (http://www.inkscape.org/) -->

<svg
   xmlns:dc="http://purl.org/dc/elements/1.1/"
   xmlns:cc="http://creativecommons.org/ns#"
   xmlns:rdf="http://www.w3.org/1999/02/22-rdf-syntax-ns#"
   xmlns:svg="http://www.w3.org/2000/svg"
   xmlns="http://www.w3.org/2000/svg"
   xmlns:sodipodi="http://sodipodi.sourceforge.net/DTD/sodipodi-0.dtd"
   xmlns:inkscape="http://www.inkscape.org/namespaces/inkscape"
   width="744.09448819"
   height="1052.3622047"
   id="svg2"
   version="1.1"
   inkscape:version="0.48.3.1 r9886"
   sodipodi:docname="wsnmodel.svg">
  <sodipodi:namedview
     id="base"
     pagecolor="#ffffff"
     bordercolor="#666666"
     borderopacity="1.0"
     inkscape:pageopacity="0.0"
     inkscape:pageshadow="2"
     inkscape:zoom="1.4142136"
     inkscape:cx="363.50927"
     inkscape:cy="528.34398"
     inkscape:document-units="px"
     inkscape:current-layer="layer1"
     showgrid="false"
     inkscape:window-width="1317"
     inkscape:window-height="744"
     inkscape:window-x="49"
     inkscape:window-y="24"
     inkscape:window-maximized="1" />
  <defs
     id="defs4">
    <marker
       inkscape:stockid="Arrow1Lend"
       orient="auto"
       refY="0.0"
       refX="0.0"
       id="Arrow1Lend"
       style="overflow:visible;">
      <path
         id="path4073"
         d="M 0.0,0.0 L 5.0,-5.0 L -12.5,0.0 L 5.0,5.0 L 0.0,0.0 z "
         style="fill-rule:evenodd;stroke:#000000;stroke-width:1.0pt;"
         transform="scale(0.8) rotate(180) translate(12.5,0)" />
    </marker>
    <marker
       inkscape:stockid="Arrow1Lstart"
       orient="auto"
       refY="0.0"
       refX="0.0"
       id="Arrow1Lstart"
       style="overflow:visible">
      <path
         id="path4070"
         d="M 0.0,0.0 L 5.0,-5.0 L -12.5,0.0 L 5.0,5.0 L 0.0,0.0 z "
         style="fill-rule:evenodd;stroke:#000000;stroke-width:1.0pt"
         transform="scale(0.8) translate(12.5,0)" />
    </marker>
  </defs>
  <metadata
     id="metadata7">
    <rdf:RDF>
      <cc:Work
         rdf:about="">
        <dc:format>image/svg+xml</dc:format>
        <dc:type
           rdf:resource="http://purl.org/dc/dcmitype/StillImage" />
        <dc:title />
      </cc:Work>
    </rdf:RDF>
  </metadata>
  <g
     id="layer1"
     inkscape:groupmode="layer"
     inkscape:label="Layer 1">
    <rect
       y="557.74097"
       x="478.00418"
       height="61.518291"
       width="82.731491"
       id="rect3782"
       style="fill:#ffffff;fill-opacity:1" />
    <rect
       style="fill:#ffffff;fill-opacity:1;fill-rule:evenodd;stroke:#000000;stroke-width:1;stroke-linecap:butt;stroke-linejoin:miter;stroke-opacity:1"
       id="rect3784"
       width="81.469681"
       height="60.609154"
       x="494.44879"
       y="557.97644" />
    <g
       id="g3796">
      <rect
         style="fill:#ffffff;fill-opacity:1;fill-rule:evenodd;stroke:#000000;stroke-width:1px;stroke-linecap:butt;stroke-linejoin:miter;stroke-opacity:1"
         id="rect2985"
         width="275.77164"
         height="60.609154"
         x="199.01503"
         y="431.3204" />
      <rect
         style="fill:#ffffff;fill-opacity:1;fill-rule:evenodd;stroke:#000000;stroke-width:1px;stroke-linecap:butt;stroke-linejoin:miter;stroke-opacity:1"
         id="rect2985-1"
         width="275.77164"
         height="60.609154"
         x="199.01503"
         y="557.97937" />
      <rect
         style="fill:#ffffff;fill-opacity:1;fill-rule:evenodd;stroke:#000000;stroke-width:1px;stroke-linecap:butt;stroke-linejoin:miter;stroke-opacity:1"
         id="rect2985-6"
         width="275.77164"
         height="60.609154"
         x="199.01503"
         y="497.97937" />
      <g
         id="g3792">
        <rect
           style="fill:#ffffff;fill-opacity:1;fill-rule:evenodd;stroke:#000000;stroke-width:1;stroke-linecap:butt;stroke-linejoin:miter;stroke-opacity:1"
           id="rect3786"
           width="125.064"
           height="60.609154"
           x="198.00131"
           y="637.8078" />
        <rect
           y="637.8078"
           x="350.73639"
           height="60.609154"
           width="125.064"
           id="rect3790"
           style="fill:#ffffff;fill-opacity:1;fill-rule:evenodd;stroke:#000000;stroke-width:1;stroke-linecap:butt;stroke-linejoin:miter;stroke-opacity:1" />
      </g>
    </g>
    <flowRoot
       style="font-size:40px;font-style:normal;font-weight:normal;line-height:125%;letter-spacing:0px;word-spacing:0px;fill:#000000;fill-opacity:1;stroke:none;font-family:Sans"
       id="flowRoot3804"
       xml:space="preserve"><flowRegion
         id="flowRegion3806"><rect
           y="445.36218"
           x="222"
           height="43"
           width="252"
           id="rect3808" /></flowRegion><flowPara
         id="flowPara3810">A</flowPara></flowRoot>    <text
       sodipodi:linespacing="125%"
       id="text3812"
       y="456.36218"
       x="264"
       style="font-size:40px;font-style:normal;font-weight:normal;line-height:125%;letter-spacing:0px;word-spacing:0px;fill:#000000;fill-opacity:1;stroke:none;font-family:Sans"
       xml:space="preserve"><tspan
         y="456.36218"
         x="264"
         id="tspan3814"
         sodipodi:role="line" /></text>
    <flowRoot
       style="font-size:24px;font-style:normal;font-weight:normal;line-height:223%;letter-spacing:0px;word-spacing:0px;fill:#000000;fill-opacity:1;stroke:none;font-family:Sans;text-anchor:middle;text-align:center"
       id="flowRoot3816"
       xml:space="preserve"><flowRegion
         id="flowRegion3818"><rect
           style="fill:#000000;fill-opacity:1;text-anchor:middle;text-align:center;font-size:24px;line-height:223%"
           y="430.36218"
           x="199"
           height="61"
           width="274"
           id="rect3820" /></flowRegion><flowPara
         id="flowPara3822">APPLICATION</flowPara></flowRoot>    <flowRoot
       xml:space="preserve"
       id="flowRoot3824"
       style="font-size:24px;font-style:normal;font-weight:normal;line-height:223%;letter-spacing:0px;word-spacing:0px;fill:#000000;fill-opacity:1;stroke:none;font-family:Sans;text-anchor:middle;text-align:center"><flowRegion
         id="flowRegion3826"><rect
           id="rect3828"
           width="274"
           height="61"
           x="199"
           y="430.36218"
           style="fill:#000000;fill-opacity:1;text-anchor:middle;text-align:center;font-size:24px;line-height:223%" /></flowRegion><flowPara
         id="flowPara3830">APPLICATION</flowPara></flowRoot>    <flowRoot
       transform="translate(-4,65)"
       style="font-size:24px;font-style:normal;font-weight:normal;text-align:center;line-height:223.00000191%;letter-spacing:0px;word-spacing:0px;text-anchor:middle;fill:#000000;fill-opacity:1;stroke:none;font-family:Sans"
       id="flowRoot3832"
       xml:space="preserve"><flowRegion
         id="flowRegion3834"><rect
           style="font-size:24px;text-align:center;line-height:223.00000191%;text-anchor:middle;fill:#000000;fill-opacity:1"
           y="430.36218"
           x="199"
           height="64"
           width="283"
           id="rect3836" /></flowRegion><flowPara
         id="flowPara3838">MICROCONTROLLER</flowPara></flowRoot>    <flowRoot
       xml:space="preserve"
       id="flowRoot3840"
       style="font-size:24px;font-style:normal;font-weight:normal;text-align:center;line-height:223.00000191%;letter-spacing:0px;word-spacing:0px;text-anchor:middle;fill:#000000;fill-opacity:1;stroke:none;font-family:Sans"
       transform="translate(-3,124)"><flowRegion
         id="flowRegion3842"><rect
           id="rect3844"
           width="282"
           height="67"
           x="199"
           y="430.36218"
           style="font-size:24px;text-align:center;line-height:223.00000191%;text-anchor:middle;fill:#000000;fill-opacity:1" /></flowRegion><flowPara
         id="flowPara3846">PERIPHERALS</flowPara></flowRoot>    <flowRoot
       transform="translate(-2.0000002,203)"
       style="font-size:24px;font-style:normal;font-weight:normal;text-align:center;line-height:223.00000191%;letter-spacing:0px;word-spacing:0px;text-anchor:middle;fill:#000000;fill-opacity:1;stroke:none;font-family:Sans"
       id="flowRoot3848"
       xml:space="preserve"><flowRegion
         id="flowRegion3850"><rect
           style="font-size:24px;text-align:center;line-height:223.00000191%;text-anchor:middle;fill:#000000;fill-opacity:1"
           y="430.36218"
           x="199"
           height="68"
           width="126"
           id="rect3852" /></flowRegion><flowPara
         id="flowPara3854">SENSORS</flowPara></flowRoot>    <flowRoot
       inkscape:transform-center-y="-9.0761719"
       inkscape:transform-center-x="74"
       xml:space="preserve"
       id="flowRoot3856"
       style="font-size:18px;font-style:normal;font-weight:normal;text-align:center;line-height:288%;letter-spacing:0px;word-spacing:0px;text-anchor:middle;fill:#000000;fill-opacity:1;stroke:none;font-family:Sans"
       transform="translate(151,202)"><flowRegion
         id="flowRegion3858"><rect
           id="rect3860"
           width="125"
           height="68"
           x="199"
           y="430.36218"
           style="font-size:18px;text-align:center;line-height:288%;text-anchor:middle;fill:#000000;fill-opacity:1" /></flowRegion><flowPara
         id="flowPara3862">ACTUATORS</flowPara></flowRoot>    <flowRoot
       xml:space="preserve"
       id="flowRoot3864"
       style="font-size:24px;font-style:normal;font-weight:normal;text-align:center;line-height:223.00000191%;letter-spacing:0px;word-spacing:0px;text-anchor:middle;fill:#000000;fill-opacity:1;stroke:none;font-family:Sans"
       transform="translate(292,124)"><flowRegion
         id="flowRegion3866"><rect
           id="rect3868"
           width="87.707108"
           height="67.707108"
           x="199"
           y="430.36218"
           style="font-size:24px;text-align:center;line-height:223.00000191%;text-anchor:middle;fill:#000000;fill-opacity:1" /></flowRegion><flowPara
         id="flowPara3870">RADIO</flowPara></flowRoot>    <path
       style="fill:none;stroke:#000000;stroke-width:0.96034127px;stroke-linecap:butt;stroke-linejoin:miter;stroke-opacity:1;marker-start:url(#Arrow1Lstart)"
       d="m 247.84093,620.95969 0,15.97726"
       id="path3970"
       inkscape:connector-type="polyline"
       inkscape:connector-curvature="3" />
    <path
       style="fill:none;stroke:#000000;stroke-width:0.95383847px;stroke-linecap:butt;stroke-linejoin:miter;stroke-opacity:1;marker-end:url(#Arrow1Lend)"
       d="m 273.5,619.46529 0,15.76162"
       id="path3970-4"
       inkscape:connector-type="polyline"
       inkscape:connector-curvature="3" />
    <path
       style="fill:none;stroke:#000000;stroke-width:0.95917463px;stroke-linecap:butt;stroke-linejoin:miter;stroke-opacity:1;marker-end:url(#Arrow1Lend)"
       d="m 412.5,619.45012 0,15.93847"
       id="path3970-9"
       inkscape:connector-type="polyline"
       inkscape:connector-curvature="3" />
    <rect
       style="fill:#000000;fill-opacity:0;stroke:#000000;stroke-width:1.11293721;stroke-miterlimit:4;stroke-opacity:1;stroke-dasharray:3.33881139, 1.11293714;stroke-dashoffset:0"
       id="rect3997"
       width="392.63531"
       height="280.8905"
       x="190.46391"
       y="424.4725" />
    <flowRoot
       xml:space="preserve"
       id="flowRoot3864-2"
       style="font-size:20px;font-style:normal;font-weight:normal;text-align:center;line-height:112.99999952%;letter-spacing:0px;word-spacing:0px;text-anchor:middle;fill:#000000;fill-opacity:1;stroke:none;font-family:Sans"
       transform="translate(299.69472,202.67351)"><flowRegion
         id="flowRegion3866-5"><rect
           id="rect3868-8"
           width="82.050331"
           height="45.07972"
           x="198.29289"
           y="451.57538"
           style="font-size:20px;text-align:center;line-height:112.99999952%;text-anchor:middle;fill:#000000;fill-opacity:1" /></flowRegion><flowPara
         id="flowPara3870-1">POWER</flowPara><flowPara
         id="flowPara4028">SUPPLY</flowPara><flowPara
         id="flowPara4026" /></flowRoot>    <path
       style="fill:none;stroke:#000000;stroke-width:0.96584547px;stroke-linecap:butt;stroke-linejoin:miter;stroke-opacity:1;marker-end:url(#Arrow1Lend)"
       d="m 493.40521,597.07857 -16.16093,0"
       id="path3970-9-5"
       inkscape:connector-type="polyline"
       inkscape:connector-curvature="3" />
    <path
       style="fill:none;stroke:#000000;stroke-width:0.95572776px;stroke-linecap:butt;stroke-linejoin:miter;stroke-opacity:1;marker-start:url(#Arrow1Lstart)"
       d="m 491.78706,578.98718 -15.82412,0"
       id="path3970-9-5-8"
       inkscape:connector-type="polyline"
       inkscape:connector-curvature="3" />
    <path
       style="opacity:0.2;fill:#b3b3b3;fill-opacity:1;stroke:#000000;stroke-width:2.12132025;stroke-miterlimit:4;stroke-opacity:1;stroke-dasharray:none;stroke-dashoffset:0"
       d="m 199.74334,588.64776 0,-28.99138 137.17872,0 137.17871,0 0,28.99138 0,28.99138 -137.17871,0 -137.17872,0 0,-28.99138 z m 215.21865,7.72685 c 1.27137,-1.00006 1.86313,-2.13776 1.86313,-3.58202 0,-3.4456 -1.16538,-4.74009 -5.3669,-5.96151 -4.31611,-1.25473 -5.51168,-2.77858 -3.41005,-4.34643 1.31633,-0.982 4.11929,-0.90392 6.89463,0.19207 1.06956,0.42238 1.25734,0.21743 1.06066,-1.15759 -0.35465,-2.47931 -5.29581,-3.35393 -8.92567,-1.57991 -2.22042,1.0852 -2.66019,1.68073 -2.84126,3.84762 -0.26704,3.19591 1.03473,4.60204 5.24104,5.6612 3.73585,0.9407 5.09001,2.77046 3.34315,4.51732 -1.18871,1.18871 -4.80915,1.20055 -7.48609,0.0245 -0.99622,-0.43767 -1.23743,-0.1939 -1.23743,1.2506 0,1.95692 0.91276,2.33202 6.09182,2.50341 1.98385,0.0656 3.50275,-0.37008 4.77297,-1.36924 l 0,-10e-6 z m -153.70036,-2.3614 0,-3.11982 3.00521,-0.49269 c 4.18151,-0.68554 5.48007,-2.03895 5.48007,-5.71152 0,-3.99641 -1.70896,-5.23381 -7.2284,-5.23381 l -4.0853,0 0,8.83884 c 0,8.36743 0.0754,8.83883 1.41421,8.83883 1.20053,0 1.41421,-0.4714 1.41421,-3.11983 z m 23.33453,2.05917 c 0,-0.83402 -0.9821,-1.06066 -4.5962,-1.06066 l -4.59619,0 0,-2.82843 0,-2.82842 4.24264,0 c 3.77123,0 4.24264,-0.15714 4.24264,-1.41422 0,-1.25707 -0.47141,-1.41421 -4.24264,-1.41421 -4.2274,0 -4.24264,-0.007 -4.24264,-2.08758 0,-2.06651 0.0446,-2.0897 4.41232,-2.2981 3.5395,-0.16887 4.45894,-0.45529 4.64803,-1.44795 0.20967,-1.10062 -0.43455,-1.23744 -5.82653,-1.23744 l -6.06225,0 0,8.83884 0,8.83883 6.01041,0 c 4.87118,0 6.01041,-0.20104 6.01041,-1.06066 z m 6.36396,-2.52184 c 0,-3.48134 0.0542,-3.57618 1.9217,-3.35876 1.77572,0.20675 2.85137,1.35128 5.51326,5.86633 0.43515,0.7381 1.35174,1.11943 2.32955,0.96915 1.60346,-0.24644 1.59903,-0.26944 -0.82506,-4.28445 -2.0438,-3.38514 -2.27714,-4.1695 -1.44567,-4.85955 0.54532,-0.45258 0.9915,-2.03866 0.9915,-3.52463 0,-3.70966 -1.84568,-4.90326 -7.58196,-4.90326 l -4.43886,0 0,8.83884 0,8.83883 1.76777,0 c 1.653,0 1.76777,-0.23257 1.76777,-3.5825 z m 16.26345,-5.25633 c 0,-8.36743 -0.0754,-8.83884 -1.41421,-8.83884 -1.33879,0 -1.41422,0.47141 -1.41422,8.83884 0,8.36743 0.0754,8.83883 1.41422,8.83883 1.33878,0 1.41421,-0.4714 1.41421,-8.83883 z m 7.07107,5.73714 0,-3.10169 3.23295,-0.48482 c 1.77812,-0.26664 3.84641,-1.09827 4.59619,-1.84805 1.84113,-1.84113 1.75738,-5.44875 -0.17422,-7.50485 -1.29285,-1.37617 -2.24917,-1.63657 -6.01041,-1.63657 l -4.47294,0 0,8.83884 c 0,8.36743 0.0754,8.83883 1.41422,8.83883 1.19927,0 1.41421,-0.4714 1.41421,-3.10169 z m 14.84924,-0.7874 0,-3.88908 3.88909,0 3.88909,0 0,3.88908 c 0,3.41769 0.17141,3.88909 1.41421,3.88909 1.33879,0 1.41421,-0.4714 1.41421,-8.83883 0,-8.36743 -0.0754,-8.83884 -1.41421,-8.83884 -1.22565,0 -1.41421,0.47141 -1.41421,3.53554 l 0,3.53553 -3.88909,0 -3.88909,0 0,-3.53553 c 0,-3.06413 -0.18856,-3.53554 -1.41421,-3.53554 -1.33879,0 -1.41422,0.47141 -1.41422,8.83884 0,8.36743 0.0754,8.83883 1.41422,8.83883 1.24279,0 1.41421,-0.4714 1.41421,-3.88909 z m 26.87006,2.82843 c 0,-0.83402 -0.9821,-1.06066 -4.5962,-1.06066 l -4.59619,0 0,-2.82843 0,-2.82842 4.24264,0 c 3.77123,0 4.24264,-0.15714 4.24264,-1.41422 0,-1.25707 -0.47141,-1.41421 -4.24264,-1.41421 -4.24264,0 -4.24264,0 -4.24264,-2.12132 l 0,-2.12132 4.59619,0 c 4.12479,0 4.5962,-0.14505 4.5962,-1.41421 0,-1.3033 -0.47141,-1.41422 -6.01041,-1.41422 l -6.01041,0 0,8.83884 0,8.83883 6.01041,0 c 4.87118,0 6.01041,-0.20104 6.01041,-1.06066 z m 6.36396,-2.47487 c 0,-3.23752 0.13977,-3.53554 1.65817,-3.53554 1.84738,0 3.25736,1.34805 4.99223,4.77297 1.02545,2.02439 1.50612,2.2981 4.03578,2.2981 2.54143,0 2.96378,-0.24396 3.6724,-2.12132 0.74781,-1.98117 1.04284,-2.12132 4.4656,-2.12132 3.43636,0 3.711,0.13228 4.40439,2.12132 0.49765,1.42759 1.21401,2.12132 2.19049,2.12132 0.79805,0 1.44591,-0.23865 1.43969,-0.53033 -0.006,-0.29168 -1.41112,-4.18961 -3.122,-8.66206 -2.72584,-7.12561 -3.32844,-8.1586 -4.87047,-8.34891 -1.62829,-0.20096 -1.96868,0.32731 -4.5563,7.07107 -1.53811,4.00854 -2.95035,7.76555 -3.13834,8.34891 -0.22472,0.69736 -0.86097,0.0477 -1.85752,-1.89657 -0.83366,-1.62647 -1.84092,-3.1582 -2.23837,-3.40384 -0.45626,-0.28198 -0.32966,-0.83959 0.34345,-1.51269 0.58634,-0.58635 1.06608,-2.29811 1.06608,-3.80391 0,-3.6746 -1.85086,-4.93934 -7.22841,-4.93934 l -4.0853,0 0,8.83884 c 0,8.36743 0.0754,8.83883 1.41422,8.83883 1.22565,0 1.41421,-0.4714 1.41421,-3.53553 z m 40.30508,2.47487 c 0,-0.82496 -0.9428,-1.06066 -4.24264,-1.06066 l -4.24264,0 0,-7.77817 c 0,-7.30677 -0.0857,-7.77818 -1.41421,-7.77818 -1.33879,0 -1.41421,0.47141 -1.41421,8.83884 l 0,8.83883 5.65685,0 c 4.55691,0 5.65685,-0.20624 5.65685,-1.06066 z"
       id="path3995"
       inkscape:connector-curvature="0" />
    <path
       style="opacity:0.2;fill:#b3b3b3;fill-opacity:1;stroke:#000000;stroke-width:2.12132025;stroke-miterlimit:4;stroke-opacity:1;stroke-dasharray:none;stroke-dashoffset:0"
       d="m 261.26163,584.68202 c 0,-3.20018 0.0348,-3.2499 1.94059,-2.77158 2.3568,0.59152 3.71627,1.64664 3.71627,2.88431 0,1.48471 -2.08031,3.1459 -3.9396,3.1459 -1.56985,0 -1.71726,-0.27972 -1.71726,-3.25863 z"
       id="path3997"
       inkscape:connector-curvature="0" />
    <path
       style="opacity:0.2;fill:#b3b3b3;fill-opacity:1;stroke:#000000;stroke-width:2.12132025;stroke-miterlimit:4;stroke-opacity:1;stroke-dasharray:none;stroke-dashoffset:0"
       d="m 290.96012,584.32265 c 0,-2.67364 0.12967,-2.87615 1.59099,-2.48453 0.87504,0.2345 1.96729,0.43071 2.42722,0.43602 1.2498,0.0144 1.87964,2.75634 0.90337,3.93268 -0.46866,0.5647 -1.76774,1.02673 -2.88685,1.02673 -1.91206,0 -2.03473,-0.1755 -2.03473,-2.9109 z"
       id="path3999"
       inkscape:connector-curvature="0" />
    <path
       style="opacity:0.2;fill:#b3b3b3;fill-opacity:1;stroke:#000000;stroke-width:2.12132025;stroke-miterlimit:4;stroke-opacity:1;stroke-dasharray:none;stroke-dashoffset:0"
       d="m 314.29464,584.75867 c 0,-3.42985 0.50902,-3.75997 3.84305,-2.49237 1.2291,0.4673 1.8138,1.21952 1.8138,2.33345 0,2.19013 -1.26653,3.3409 -3.67695,3.3409 -1.87514,0 -1.9799,-0.16835 -1.9799,-3.18198 z"
       id="path4001"
       inkscape:connector-curvature="0" />
    <path
       style="opacity:0.2;fill:#b3b3b3;fill-opacity:1;stroke:#000000;stroke-width:2.12132025;stroke-miterlimit:4;stroke-opacity:1;stroke-dasharray:none;stroke-dashoffset:0"
       d="m 362.3779,584.32265 c 0,-2.67364 0.12968,-2.87615 1.59099,-2.48453 0.87504,0.2345 1.96729,0.43071 2.42722,0.43602 1.2498,0.0144 1.87965,2.75634 0.90338,3.93268 -0.46866,0.5647 -1.76775,1.02673 -2.88685,1.02673 -1.91207,0 -2.03474,-0.1755 -2.03474,-2.9109 z"
       id="path4003"
       inkscape:connector-curvature="0" />
    <path
       style="opacity:0.2;fill:#b3b3b3;fill-opacity:1;stroke:#000000;stroke-width:2.12132025;stroke-miterlimit:4;stroke-opacity:1;stroke-dasharray:none;stroke-dashoffset:0"
       d="m 378.64193,589.8852 c 3.2e-4,-0.0972 0.58117,-1.70551 1.29078,-3.57395 l 1.2902,-3.39717 0.87649,2.69006 c 0.48207,1.47954 1.04143,3.08781 1.24302,3.57395 0.25331,0.61086 -0.41615,0.88388 -2.16727,0.88388 -1.39359,0 -2.53354,-0.0795 -2.53322,-0.17677 z"
       id="path4005"
       inkscape:connector-curvature="0" />
    <path
       style="opacity:0.2;fill:#b3b3b3;fill-opacity:1;stroke:#000000;stroke-width:2.12132025;stroke-miterlimit:4;stroke-opacity:1;stroke-dasharray:none;stroke-dashoffset:0"
       d="m 199.74334,528.19013 0,-29.34493 137.17872,0 137.17871,0 0,29.34493 0,29.34493 -137.17871,0 -137.17872,0 0,-29.34493 z m 20.5453,3.71231 0.0392,-6.54073 1.80884,4.77297 c 1.50153,3.96208 2.08189,4.77297 3.41606,4.77297 1.33417,0 1.91453,-0.81089 3.41606,-4.77297 l 1.80884,-4.77297 0.0392,6.54073 c 0.0363,6.05627 0.14395,6.54074 1.45341,6.54074 1.34169,0 1.41422,-0.4714 1.41422,-9.19239 l 0,-9.19239 -1.96034,0 c -1.80477,0 -2.12871,0.45234 -4.08229,5.70031 l -2.12196,5.7003 -2.07266,-5.7003 c -1.91815,-5.27537 -2.22002,-5.70031 -4.04943,-5.70031 l -1.97678,0 0,9.19239 c 0,8.72099 0.0725,9.19239 1.41422,9.19239 1.30946,0 1.41711,-0.48447 1.45341,-6.54074 z m 20.4669,-2.65165 c 0,-8.72098 -0.0725,-9.19239 -1.41422,-9.19239 -1.34169,0 -1.41421,0.47141 -1.41421,9.19239 0,8.72099 0.0725,9.19239 1.41421,9.19239 1.34169,0 1.41422,-0.4714 1.41422,-9.19239 z m 17.01704,8.4604 c 0.75225,-0.40259 1.36773,-1.35718 1.36773,-2.12132 0,-1.66456 0.099,-1.65398 -3.07291,-0.32867 -3.58168,1.49652 -4.52657,1.34813 -6.96913,-1.09442 -1.92277,-1.92277 -2.11648,-2.49755 -1.797,-5.332 0.19695,-1.7473 0.92233,-3.80039 1.61196,-4.56243 1.51254,-1.67134 5.70243,-1.85792 7.85554,-0.34982 1.61296,1.12976 2.37154,0.79708 2.37154,-1.04005 0,-1.60935 -2.93414,-2.82408 -6.82149,-2.82408 -2.7185,0 -3.5935,0.37408 -5.62359,2.40417 -2.19516,2.19516 -2.40198,2.76376 -2.3791,6.54074 0.0279,4.60826 1.06676,7.05551 3.58831,8.4531 2.02755,1.12379 7.95828,1.27691 9.86814,0.25478 z m 7.02459,-2.84834 0,-3.58034 2.29809,0.22158 c 1.93319,0.18639 2.5788,0.75458 4.06587,3.57829 1.3081,2.48389 2.18146,3.35724 3.35875,3.35875 2.03521,0.003 2.01224,-0.19786 -0.54112,-4.72215 -1.98321,-3.51407 -2.0569,-3.89268 -1.05518,-5.4215 0.72286,-1.10322 0.92459,-2.40528 0.61357,-3.96034 -0.557,-2.78502 -3.47679,-4.27874 -8.36372,-4.27874 l -3.20469,0 0,9.19239 c 0,8.72099 0.0725,9.19239 1.41421,9.19239 1.22801,0 1.41422,-0.4714 1.41422,-3.58033 z m 26.36995,2.15506 c 4.78144,-3.76108 3.97142,-13.73665 -1.31085,-16.14341 -4.06081,-1.85024 -8.76294,-0.61475 -10.95563,2.87859 -1.15163,1.83474 -1.39777,3.18204 -1.18504,6.4867 0.23367,3.63019 0.56106,4.43238 2.52502,6.18718 2.86112,2.55642 8.06968,2.83811 10.9265,0.59094 z m 18.93136,0.69328 c 1.5006,-0.80309 1.95587,-3.87239 0.48385,-3.26197 -4.5376,1.88168 -6.15018,2.05954 -7.95446,0.87732 -3.38643,-2.21887 -4.08947,-8.06991 -1.33534,-11.1132 1.46119,-1.61459 5.77453,-1.77527 7.74044,-0.28834 1.92157,1.45341 2.43324,1.33332 2.43324,-0.57111 0,-2.09319 -2.4887,-3.29549 -6.82149,-3.29549 -2.7185,0 -3.5935,0.37408 -5.62359,2.40417 -2.17134,2.17134 -2.40416,2.79418 -2.40416,6.43163 0,4.38604 1.38929,7.55406 3.83266,8.73966 1.95388,0.94809 7.9323,0.99601 9.64885,0.0773 z m 17.32212,-1.43576 c 1.89441,-1.97734 2.07683,-2.60355 2.07683,-7.12907 0,-4.7097 -0.11711,-5.06597 -2.30925,-7.02464 -2.64102,-2.35975 -6.63973,-2.77399 -10.00063,-1.036 -3.15758,1.63285 -4.85595,7.03642 -3.6358,11.56774 1.08406,4.02587 3.56105,5.78972 8.13058,5.78972 3.16265,0 3.94435,-0.2953 5.73827,-2.16775 l 0,0 z m 8.82012,-4.37299 0.0258,-6.54073 3.33298,6.36396 c 2.84092,5.4244 3.62007,6.39699 5.27753,6.5877 l 1.94455,0.22375 0,-9.23936 c -4e-5,-8.70906 -0.0797,-9.23936 -1.38772,-9.23936 -1.26417,0 -1.40577,0.58217 -1.59099,6.54074 l -0.20331,6.54074 -3.41357,-6.58242 c -3.12746,-6.03069 -3.57197,-6.5641 -5.3033,-6.36396 l -1.88973,0.21846 -0.20119,8.08849 c -0.22703,9.12771 -0.0675,9.94273 1.94677,9.94273 1.33842,0 1.43816,-0.44618 1.46217,-6.54074 z m 21.89454,-1.23743 0,-7.77818 2.82843,0 c 2.35702,0 2.82842,-0.2357 2.82842,-1.41421 0,-1.32851 -0.4714,-1.41422 -7.77817,-1.41422 -7.30677,0 -7.77818,0.0857 -7.77818,1.41422 0,1.2047 0.47141,1.41421 3.18198,1.41421 l 3.18198,0 0,7.77818 0,7.77817 1.76777,0 1.76777,0 0,-7.77817 z m 10.6066,4.19784 0,-3.58034 2.2981,0.22158 c 1.93318,0.18639 2.57879,0.75458 4.06586,3.57829 1.30811,2.48389 2.18146,3.35724 3.35876,3.35875 2.0318,0.003 2.00957,-0.20256 -0.5044,-4.65709 -1.96753,-3.48627 -2.03228,-3.83934 -1.06101,-5.78629 0.80182,-1.60728 0.86394,-2.56236 0.27633,-4.248 -0.87722,-2.51641 -3.48266,-3.69135 -8.1856,-3.69135 l -3.07647,0 0,9.19239 c 0,8.72099 0.0725,9.19239 1.41422,9.19239 1.22801,0 1.41421,-0.4714 1.41421,-3.58033 z m 26.86388,1.57397 c 4.01141,-4.01141 3.16009,-12.95549 -1.46057,-15.34492 -3.37213,-1.7438 -7.36838,-1.33277 -10.01258,1.02982 -2.2007,1.96633 -2.30925,2.30145 -2.30925,7.12907 0,4.82763 0.10855,5.16275 2.30925,7.12907 1.90679,1.70372 2.93297,2.06332 5.88802,2.06332 2.98804,0 3.90996,-0.33118 5.58513,-2.00636 z m 16.97674,0.59215 c 0,-1.25708 -0.47141,-1.41422 -4.24264,-1.41422 l -4.24264,0 0,-7.77817 c 0,-7.30677 -0.0857,-7.77818 -1.41422,-7.77818 -1.34169,0 -1.41421,0.47141 -1.41421,9.19239 l 0,9.19239 5.65686,0 c 5.18544,0 5.65685,-0.11785 5.65685,-1.41421 z m 13.43503,0 c 0,-1.25708 -0.47141,-1.41422 -4.24264,-1.41422 l -4.24264,0 0,-7.77817 c 0,-7.30677 -0.0857,-7.77818 -1.41422,-7.77818 -1.34169,0 -1.41421,0.47141 -1.41421,9.19239 l 0,9.19239 5.65685,0 c 5.18545,0 5.65686,-0.11785 5.65686,-1.41421 z m 14.14213,0 c 0,-1.26917 -0.4714,-1.41422 -4.59619,-1.41422 l -4.59619,0 0,-2.82842 0,-2.82843 4.24264,0 c 3.77123,0 4.24264,-0.15714 4.24264,-1.41421 0,-1.25708 -0.47141,-1.41422 -4.24264,-1.41422 -4.24264,0 -4.24264,0 -4.24264,-2.12132 0,-2.12132 0,-2.12132 4.24264,-2.12132 3.77123,0 4.24264,-0.15713 4.24264,-1.41421 0,-1.29636 -0.47141,-1.41422 -5.65686,-1.41422 l -5.65685,0 0,9.19239 0,9.19239 6.01041,0 c 5.539,0 6.0104,-0.11092 6.0104,-1.41421 z m 6.36396,-2.12132 c 0,-3.45253 0.0495,-3.53554 2.10941,-3.53554 1.82101,0 2.35436,0.48339 3.901,3.53554 1.24244,2.45185 2.22141,3.53553 3.1939,3.53553 0.77126,0 1.4023,-0.33087 1.4023,-0.73528 0,-1.07788 -2.68755,-6.16526 -3.53301,-6.68778 -0.46669,-0.28843 -0.34439,-0.99106 0.34344,-1.97308 1.53339,-2.18921 1.34726,-5.68852 -0.38599,-7.25709 -1.00229,-0.90706 -2.8702,-1.40623 -6.01041,-1.60618 l -4.55617,-0.29011 0,9.27476 0,9.27476 1.76777,0 c 1.64991,0 1.76776,-0.2357 1.76776,-3.53553 z"
       id="path4007"
       inkscape:connector-curvature="0" />
    <path
       style="opacity:0.2;fill:#b3b3b3;fill-opacity:1;stroke:#000000;stroke-width:2.12132025;stroke-miterlimit:4;stroke-opacity:1;stroke-dasharray:none;stroke-dashoffset:0"
       d="m 199.74334,461.7221 0,-29.34493 137.17872,0 137.17871,0 0,29.34493 0,29.34493 -137.17871,0 -137.17872,0 0,-29.34493 z m 137.78031,11.59809 c 1.66427,-0.58017 2.22683,-1.2054 2.22683,-2.47488 0,-1.94833 -0.50285,-2.07552 -2.43324,-0.61544 -3.85304,2.91428 -8.88047,-0.22874 -8.88047,-5.55185 0,-5.89971 4.06144,-8.43767 9.22751,-5.76619 2.03358,1.05161 2.0862,1.03551 2.0862,-0.63794 0,-3.00324 -5.87956,-4.23661 -10.26832,-2.15401 -6.29213,2.98582 -5.92446,14.10947 0.55953,16.92824 2.79914,1.21686 4.58539,1.28182 7.48196,0.27207 l 0,0 z m 52.80024,-0.33903 c 5.84038,-2.77144 6.12407,-13.92397 0.4291,-16.86895 -6.6717,-3.45007 -13.49546,1.59131 -12.62362,9.3263 0.78088,6.92794 6.29827,10.3406 12.19452,7.54265 l 0,0 z m -128.35515,-1.71312 c 0.81998,-1.97961 1.129,-2.12132 4.6258,-2.12132 3.58852,0 3.76683,0.0898 4.21303,2.12132 0.36781,1.67461 0.84228,2.12132 2.25316,2.12132 1.13325,0 1.66726,-0.32343 1.45937,-0.88389 -5.75322,-15.50991 -6.38346,-16.79378 -8.2439,-16.79378 -1.64212,0 -2.04125,0.55259 -3.70281,5.12652 -1.02426,2.81959 -2.52928,6.79707 -3.34448,8.83884 l -1.48218,3.71231 1.67167,0 c 1.19073,0 1.92445,-0.61029 2.55034,-2.12132 z m 17.67767,-1.41422 0,-3.53553 2.75009,0 c 3.82431,0 5.87661,-1.81527 5.87661,-5.1979 0,-4.15523 -1.61497,-5.4087 -6.96853,-5.4087 l -4.4866,0 0,8.83883 c 0,8.36743 0.0754,8.83884 1.41421,8.83884 1.22565,0 1.41422,-0.47141 1.41422,-3.53554 z m 14.14213,0 0,-3.53553 3.18198,0 c 3.99613,0 6.01041,-1.77731 6.01041,-5.3033 0,-3.9323 -1.9194,-5.3033 -7.42462,-5.3033 l -4.59619,0 0,8.83883 c 0,8.36743 0.0754,8.83884 1.41421,8.83884 1.22565,0 1.41421,-0.47141 1.41421,-3.53554 z m 23.33453,2.12132 c 0,-1.25707 -0.47141,-1.41421 -4.24264,-1.41421 l -4.24264,0 0,-7.42462 c 0,-6.95322 -0.0898,-7.42462 -1.41422,-7.42462 -1.33878,0 -1.41421,0.4714 -1.41421,8.83883 l 0,8.83884 5.65685,0 c 5.18545,0 5.65686,-0.11785 5.65686,-1.41422 z m 4.94974,-7.42462 0,-8.83883 -1.76776,0 -1.76777,0 0,8.83883 0,8.83884 1.76777,0 1.76776,0 0,-8.83884 z m 22.52147,6.71752 c 0.69139,-1.98336 0.97421,-2.12132 4.34859,-2.12132 3.37438,0 3.6572,0.13796 4.34859,2.12132 0.54197,1.55467 1.18848,2.12132 2.42031,2.12132 l 1.68081,0 -2.04621,-5.48008 c -4.8066,-12.87287 -4.45239,-12.19759 -6.39791,-12.19759 -1.65858,0 -2.07641,0.69292 -4.974,8.24866 -1.73983,4.53677 -3.26938,8.51424 -3.39902,8.83884 -0.12964,0.32459 0.55518,0.59017 1.52182,0.59017 1.31706,0 1.94284,-0.53163 2.49702,-2.12132 z m 19.75208,-5.83363 0.2007,-7.6014 2.80451,0 c 2.02149,0 2.8045,-0.29614 2.8045,-1.06066 0,-0.87853 -1.33564,-1.06066 -7.77817,-1.06066 -6.44253,0 -7.77818,0.18213 -7.77818,1.06066 0,0.78567 0.82497,1.06066 3.18199,1.06066 l 3.18198,0 0,7.82735 c 0,7.71281 0.0233,7.82405 1.59099,7.6014 1.52254,-0.21623 1.59962,-0.55297 1.79168,-7.82735 z m 10.75946,-0.88389 c 0,-8.36743 -0.0754,-8.83883 -1.41421,-8.83883 -1.33879,0 -1.41422,0.4714 -1.41422,8.83883 0,8.36743 0.0754,8.83884 1.41422,8.83884 1.33878,0 1.41421,-0.47141 1.41421,-8.83884 z m 26.17948,2.65165 0.0165,-6.18718 3.29451,6.18718 c 2.94704,5.53463 3.50463,6.18719 5.28677,6.18719 l 1.99224,0 0,-8.83884 c 0,-8.36743 -0.0754,-8.83883 -1.41421,-8.83883 -1.31102,0 -1.4155,0.47729 -1.43186,6.54074 l -0.0177,6.54073 -3.56957,-6.54073 c -3.24536,-5.94674 -3.75749,-6.54074 -5.63917,-6.54074 l -2.06964,0 0,8.83883 0,8.83884 1.76776,0 c 1.74968,0 1.76794,-0.0633 1.7843,-6.18719 z"
       id="path4009"
       inkscape:connector-curvature="0" />
    <path
       style="opacity:0.2;fill:#b3b3b3;fill-opacity:1;stroke:#000000;stroke-width:2.12132025;stroke-miterlimit:4;stroke-opacity:1;stroke-dasharray:none;stroke-dashoffset:0"
       d="m 199.03624,668.19727 0,-29.34493 61.51829,0 61.51828,0 0,29.34493 0,29.34493 -61.51828,0 -61.51829,0 0,-29.34493 z m 16.31834,7.0214 c 1.75961,-1.59243 1.83102,-6.02358 0.12189,-7.56382 -0.68059,-0.61334 -2.19203,-1.33691 -3.35876,-1.60793 -1.16672,-0.27102 -2.84265,-0.94307 -3.72427,-1.49344 -1.31119,-0.81854 -1.46754,-1.25369 -0.859,-2.39075 0.82394,-1.53955 3.6654,-1.83847 6.65856,-0.70047 1.63857,0.62298 1.8138,0.5236 1.8138,-1.02862 0,-1.40385 -0.45282,-1.80318 -2.47487,-2.18252 -5.54402,-1.04006 -9.54595,1.23245 -9.54595,5.42071 0,2.30755 1.34822,3.50243 5.50505,4.87899 4.03713,1.33692 5.34228,3.17062 3.33379,4.68388 -1.37967,1.03949 -3.80318,1.00724 -7.24785,-0.0964 -1.30469,-0.41803 -1.59099,-0.24407 -1.59099,0.96671 0,2.88828 8.48881,3.71985 11.3686,1.11368 z m 46.52357,1.03595 c 2.50318,-0.87261 3.62612,-2.47751 3.62612,-5.18244 0,-2.49634 -2.19002,-4.46156 -6.05702,-5.43528 -1.7907,-0.45091 -3.42341,-1.25658 -3.62825,-1.79038 -0.9552,-2.48923 3.68605,-4.06372 6.90333,-2.34188 1.17699,0.6299 1.36773,0.49349 1.36773,-0.97819 0,-1.17578 -0.49715,-1.84341 -1.59099,-2.13655 -3.68191,-0.98671 -7.80188,-0.10799 -9.18156,1.95828 -0.91929,1.37676 -0.57501,5.23935 0.56895,6.38331 0.61056,0.61056 1.9629,1.2917 3.0052,1.51366 3.5125,0.74797 5.07708,1.68244 5.07708,3.03236 0,2.83307 -3.47103,3.62543 -8.01717,1.83014 -1.07139,-0.4231 -1.25769,-0.21711 -1.06066,1.17273 0.17258,1.21744 0.82851,1.81136 2.36031,2.13719 3.29115,0.70004 4.21663,0.67729 6.62693,-0.16295 l 0,0 z m 17.38242,-0.22011 c 4.00168,-1.67201 5.81467,-6.11333 4.63346,-11.35068 -1.30362,-5.78007 -7.6182,-8.47381 -12.57375,-5.36382 -2.71819,1.70587 -3.69469,3.88668 -3.69469,8.2513 0,4.10318 1.6412,7.2016 4.46518,8.42983 2.89259,1.25808 4.22383,1.26427 7.1698,0.0334 l 0,0 z m 33.44756,0.24859 c 2.87323,-1.00161 4.21579,-4.09174 3.02585,-6.96451 -0.81096,-1.95781 -1.79856,-2.55102 -6.73577,-4.04588 -2.27837,-0.68983 -3.22427,-2.88756 -1.66743,-3.87417 1.31408,-0.83277 4.654,-0.77655 6.30324,0.1061 1.17699,0.6299 1.36773,0.49349 1.36773,-0.97819 0,-1.81154 -1.47047,-2.55427 -5.09326,-2.57257 -4.59397,-0.0232 -7.65427,3.64372 -6.21039,7.44142 0.36412,0.95772 0.74947,1.75027 0.85632,1.76122 0.10685,0.011 1.94437,0.59865 4.08337,1.306 2.87558,0.95093 3.94634,1.67037 4.10877,2.76067 0.40832,2.74076 -3.00834,3.538 -8.17464,1.90746 -1.30226,-0.411 -1.59099,-0.23419 -1.59099,0.97434 0,2.36319 5.59952,3.61704 9.7272,2.17811 z m -80.43788,-1.36831 c 0,-1.26917 -0.4714,-1.41422 -4.59619,-1.41422 l -4.59619,0 0,-2.82842 0,-2.82843 4.24264,0 c 3.29983,0 4.24264,-0.2357 4.24264,-1.06066 0,-0.82496 -0.94281,-1.06066 -4.24264,-1.06066 l -4.24264,0 0,-2.47488 0,-2.47487 4.24264,0 c 3.29983,0 4.24264,-0.2357 4.24264,-1.06066 0,-0.85442 -1.09995,-1.06066 -5.65686,-1.06066 l -5.65685,0 0,8.83883 0,8.83884 6.01041,0 c 5.539,0 6.0104,-0.11092 6.0104,-1.41421 z m 5.68137,-5.48008 0.0245,-6.89429 3.57873,6.89429 c 3.27901,6.31691 3.75071,6.89429 5.63233,6.89429 l 2.05362,0 0,-8.83884 c 0,-8.31109 -0.0829,-8.83883 -1.38768,-8.83883 -1.26289,0 -1.40596,0.5817 -1.59099,6.46875 l -0.20331,6.46876 -3.40692,-6.46876 c -3.1116,-5.90802 -3.58663,-6.46875 -5.48008,-6.46875 l -2.07316,0 0,8.83883 c 0,8.36743 0.0754,8.83884 1.41422,8.83884 1.31583,0 1.41591,-0.47958 1.43872,-6.89429 z m 52.30139,3.31395 0,-3.58033 2.2981,0.22158 c 1.93318,0.18639 2.57879,0.75458 4.06586,3.57829 1.30811,2.48389 2.18146,3.35724 3.35876,3.35875 2.02985,0.003 1.99864,-0.3295 -0.42749,-4.54932 -1.87522,-3.26162 -1.93716,-3.61226 -0.94384,-5.34304 1.19267,-2.07809 0.77623,-4.91859 -0.97834,-6.67315 -0.7785,-0.7785 -2.468,-1.11011 -5.65579,-1.11011 l -4.54569,0 0,8.83883 c 0,8.36743 0.0754,8.83884 1.41422,8.83884 1.22801,0 1.41421,-0.47141 1.41421,-3.58034 z"
       id="path4011"
       inkscape:connector-curvature="0" />
    <path
       style="opacity:0.2;fill:#b3b3b3;fill-opacity:1;stroke:#000000;stroke-width:2.12132025;stroke-miterlimit:4;stroke-opacity:1;stroke-dasharray:none;stroke-dashoffset:0"
       d="m 351.7713,668.19727 0,-29.34493 61.51829,0 61.51828,0 0,29.34493 0,29.34493 -61.51828,0 -61.51829,0 0,-29.34493 z m 9.19239,4.24264 c 0.559,-1.47028 1.13811,-1.76776 3.44137,-1.76776 2.36417,0 2.83418,0.25859 3.21296,1.76776 0.28214,1.12415 0.94213,1.76777 1.81273,1.76777 1.31451,0 1.29889,-0.18641 -0.39196,-4.67859 -4.46607,-11.86526 -4.94564,-12.02652 -8.48772,-2.85406 -1.32869,3.44077 -2.41581,6.5432 -2.41581,6.8943 0,1.4039 2.19912,0.52577 2.82843,-1.12942 z m 20.09471,1.33856 c 0.61517,-0.23606 1.11849,-1.03156 1.11849,-1.76776 0,-1.42884 -1.0444,-1.8019 -1.76777,-0.63146 -0.679,1.09864 -4.36963,0.83265 -5.60634,-0.40406 -0.63081,-0.6308 -1.11117,-2.30503 -1.11117,-3.87279 0,-3.45048 2.54619,-5.59331 5.20611,-4.38137 0.88695,0.40412 3.10131,0.56697 4.92078,0.36189 l 3.30814,-0.37287 0,5.74881 c 0,4.63866 0.20482,5.74882 1.06066,5.74882 0.85442,0 1.06066,-1.09995 1.06066,-5.65686 l 0,-5.65685 2.47487,0 c 2.00347,0 2.47487,-0.26937 2.47487,-1.41421 0,-1.3033 -0.4714,-1.41422 -6.0104,-1.41422 -3.43385,0 -6.01041,0.29563 -6.01041,0.68961 0,0.44807 -0.63529,0.44807 -1.8138,0 -3.11851,-1.18566 -5.26837,-0.78729 -7.43298,1.37732 -2.78914,2.78914 -2.94725,7.72364 -0.3313,10.33958 1.73108,1.73109 5.7397,2.35014 8.45959,1.30642 l 0,0 z m 23.35226,-1.14234 c 1.54833,-2.21056 1.58137,-12.57059 0.0401,-12.57059 -0.83896,0 -1.06066,1.00636 -1.06066,4.8146 0,5.51376 -0.98182,7.46265 -3.57515,7.0966 -1.63283,-0.23048 -1.74765,-0.55558 -2.0817,-5.89396 -0.29103,-4.65087 -0.57239,-5.69167 -1.59099,-5.88548 -1.09577,-0.2085 -1.23744,0.4181 -1.23744,5.47325 0,4.76589 0.23356,5.94226 1.41421,7.12292 2.02835,2.02835 6.6233,1.939 8.09164,-0.15734 z m 5.34339,-0.19622 c 0.54252,-1.42693 1.15557,-1.76776 3.17964,-1.76776 1.98851,0 2.67425,0.3659 3.31298,1.76776 0.443,0.97227 1.37651,1.76777 2.07448,1.76777 1.17105,0 1.13307,-0.36119 -0.492,-4.67859 -4.46275,-11.85644 -5.00641,-12.05513 -8.48133,-3.09959 -1.28269,3.30573 -2.35242,6.40816 -2.37718,6.8943 -0.0819,1.60888 2.09897,0.91633 2.78341,-0.88389 z m 14.84924,-3.88909 0,-5.65685 2.12132,0 c 1.64992,0 2.12132,-0.31427 2.12132,-1.41421 0,-1.29636 -0.4714,-1.41422 -5.65685,-1.41422 -5.18545,0 -5.65685,0.11786 -5.65685,1.41422 0,1.09994 0.4714,1.41421 2.12132,1.41421 l 2.12132,0 0,5.65685 c 0,5.18545 0.11785,5.65686 1.41421,5.65686 1.29636,0 1.41421,-0.47141 1.41421,-5.65686 z m 14.46401,5.21762 c 1.6535,-0.63451 3.21366,-4.03513 3.21366,-7.00466 0,-1.89151 -0.54234,-3.10673 -2.06693,-4.63131 -2.77893,-2.77893 -5.81512,-2.77893 -8.59406,0 -2.78914,2.78914 -2.94725,7.72364 -0.3313,10.33958 1.72647,1.72647 5.16463,2.29947 7.77863,1.29639 l 0,0 z m 7.4563,-2.43837 c 0,-2.57814 0.16524,-2.85409 1.58778,-2.65165 0.90755,0.12915 2.32152,1.36197 3.30045,2.87761 1.63768,2.53553 3.59706,3.54393 3.59706,1.85123 0,-0.44023 -0.67675,-1.89542 -1.50388,-3.23374 -1.1154,-1.80477 -1.29806,-2.63914 -0.70711,-3.23009 0.43823,-0.43822 0.79677,-1.46781 0.79677,-2.28796 0,-2.63933 -1.56948,-3.88441 -5.48008,-4.3474 l -3.71231,-0.43951 0,7.16956 c 0,5.90154 0.18759,7.16956 1.06066,7.16956 0.76906,0 1.06066,-0.79114 1.06066,-2.87761 z m 18.50588,1.70736 c 2.60147,-2.35431 1.0943,-6.12356 -2.8222,-7.05792 -2.90051,-0.69198 -3.85223,-1.6518 -2.8433,-2.86749 0.59694,-0.71927 1.61345,-0.87734 3.54426,-0.55113 2.16592,0.36593 2.70725,0.23928 2.70725,-0.63338 0,-0.69757 -0.94113,-1.26733 -2.61075,-1.58056 -3.45163,-0.64753 -6.147,0.82919 -6.46015,3.53935 -0.28311,2.45027 0.56172,3.37033 3.97376,4.32765 1.88739,0.52955 2.62226,1.12571 2.62226,2.1273 0,1.20477 -0.45085,1.37619 -3.35875,1.27707 -3.16448,-0.10786 -4.2886,0.71671 -2.88735,2.11795 0.9717,0.97172 6.84671,0.46701 8.13497,-0.69884 l 0,0 z"
       id="path4013"
       inkscape:connector-curvature="0" />
    <path
       style="opacity:0.2;fill:#b3b3b3;fill-opacity:1;stroke:#000000;stroke-width:2.12132025;stroke-miterlimit:4;stroke-opacity:1;stroke-dasharray:none;stroke-dashoffset:0"
       d="m 495.31397,588.29421 0,-29.34493 39.95153,0 39.95153,0 0,29.34493 0,29.34493 -39.95153,0 -39.95153,0 0,-29.34493 z M 569.2586,595.67 c 3.36882,-3.16484 3.82667,-9.99666 0.91778,-13.69472 -3.22561,-4.1007 -10.73399,-3.80807 -13.37373,0.52124 -2.76618,4.53667 -1.36079,11.99507 2.69015,14.27667 2.6954,1.51813 7.56055,0.96854 9.7658,-1.10319 z m -67.58067,-2.07249 c 0,-3.23752 0.13977,-3.53554 1.65818,-3.53554 1.84738,0 3.25735,1.34805 4.99222,4.77297 1.0473,2.06754 1.47587,2.2981 4.27173,2.2981 2.87799,0 3.14207,-0.15676 3.57356,-2.12132 0.44652,-2.03297 0.62267,-2.12132 4.22965,-2.12132 3.54619,0 3.80648,0.12261 4.50323,2.12132 0.49766,1.42759 1.21401,2.12132 2.19049,2.12132 0.79805,0 1.44992,-0.23865 1.44861,-0.53033 -0.001,-0.29168 -1.38763,-4.18961 -3.08072,-8.66206 -2.72514,-7.19873 -3.28395,-8.15654 -4.87043,-8.34804 -1.63089,-0.19687 -1.96752,0.2484 -3.74219,4.94974 -1.07255,2.84134 -2.49747,6.58725 -3.16649,8.32426 l -1.21641,3.15818 -1.49652,-2.93343 c -0.82309,-1.61339 -1.83831,-3.14467 -2.25605,-3.40285 -0.4942,-0.30543 -0.34953,-0.76921 0.41416,-1.32763 0.74618,-0.54562 1.17368,-1.86271 1.17368,-3.61601 0,-3.89696 -1.91941,-5.2895 -7.29082,-5.2895 l -4.16431,0 0,8.83884 c 0,8.36743 0.0754,8.83883 1.41422,8.83883 1.22565,0 1.41421,-0.4714 1.41421,-3.53553 z m 41.72169,1.5206 c 3.94827,-3.94826 3.45201,-11.61099 -0.92479,-14.2797 -1.64881,-1.00534 -3.54973,-1.37847 -7.03255,-1.38039 l -4.77297,-0.003 0,8.83884 0,8.83883 5.35769,0 c 4.94732,0 5.51203,-0.15433 7.37262,-2.01493 z m 9.19,-6.8239 0,-8.83884 -1.76777,0 -1.76777,0 0,8.83884 0,8.83883 1.76777,0 1.76777,0 0,-8.83883 z"
       id="path4015"
       inkscape:connector-curvature="0" />
    <path
       style="opacity:0.2;fill:#b3b3b3;fill-opacity:1;stroke:#000000;stroke-width:2.12132025;stroke-miterlimit:4;stroke-opacity:1;stroke-dasharray:none;stroke-dashoffset:0"
       d="m 433.11345,670.71863 c -1.23784,-2.31294 -0.87324,-6.06342 0.73055,-7.51484 1.33483,-1.208 1.62812,-1.23104 3.35876,-0.26385 1.49862,0.83752 1.94092,1.66691 2.10941,3.9555 0.14404,1.95647 -0.15905,3.268 -0.93439,4.04334 -1.56779,1.56779 -4.37017,1.4506 -5.26433,-0.22015 z"
       id="path4017"
       inkscape:connector-curvature="0" />
    <path
       style="opacity:0.2;fill:#b3b3b3;fill-opacity:1;stroke:#000000;stroke-width:2.12132025;stroke-miterlimit:4;stroke-opacity:1;stroke-dasharray:none;stroke-dashoffset:0"
       d="m 446.5236,664.35515 c 0,-2.30336 0.14333,-2.39467 2.68876,-1.7129 2.39273,0.64087 1.83941,3.36017 -0.74421,3.65745 -1.74721,0.20103 -1.94455,0.004 -1.94455,-1.94455 z"
       id="path4019"
       inkscape:connector-curvature="0" />
    <path
       style="opacity:0.2;fill:#b3b3b3;fill-opacity:1;stroke:#000000;stroke-width:2.12132025;stroke-miterlimit:4;stroke-opacity:1;stroke-dasharray:none;stroke-dashoffset:0"
       d="m 533.49774,588.38617 c 0,-7.44426 -0.16478,-7.22379 4.57726,-6.12437 3.49525,0.81036 4.61512,2.28793 4.61512,6.08922 0,4.13356 -1.69024,5.99902 -5.86153,6.46919 l -3.33085,0.37543 0,-6.80947 z"
       id="path4021"
       inkscape:connector-curvature="0" />
    <path
       style="opacity:0.2;fill:#b3b3b3;fill-opacity:1;stroke:#000000;stroke-width:2.12132025;stroke-miterlimit:4;stroke-opacity:1;stroke-dasharray:none;stroke-dashoffset:0"
       d=""
       id="path4023"
       inkscape:connector-curvature="0" />
    <path
       style="opacity:0.2;fill:#b3b3b3;fill-opacity:1;stroke:#000000;stroke-width:2.12132025;stroke-miterlimit:4;stroke-opacity:1;stroke-dasharray:none;stroke-dashoffset:0"
       d="m 519.20186,586.52697 1.13045,-3.53501 0.83659,1.98968 c 2.0528,4.88217 2.02784,5.08033 -0.63998,5.08033 l -2.45751,0 1.13045,-3.535 z"
       id="path4025"
       inkscape:connector-curvature="0" />
    <path
       style="opacity:0.2;fill:#b3b3b3;fill-opacity:1;stroke:#000000;stroke-width:2.12132025;stroke-miterlimit:4;stroke-opacity:1;stroke-dasharray:none;stroke-dashoffset:0"
       d="m 501.67793,584.40512 c 0,-3.05188 0.58508,-3.3775 3.84306,-2.13882 3.28695,1.2497 1.89255,4.96725 -1.86316,4.96725 -1.83848,0 -1.9799,-0.20203 -1.9799,-2.82843 z"
       id="path4027"
       inkscape:connector-curvature="0" />
    <path
       style="opacity:0.2;fill:#b3b3b3;fill-opacity:1;stroke:#000000;stroke-width:2.12132025;stroke-miterlimit:4;stroke-opacity:1;stroke-dasharray:none;stroke-dashoffset:0"
       d="m 560.95116,594.27766 c -1.60146,-0.93441 -2.94796,-5.2665 -2.36595,-7.612 1.78628,-7.19863 9.36762,-6.47144 10.07499,0.96639 0.2696,2.83477 0.0436,3.85593 -1.20311,5.43513 -1.60454,2.03252 -4.25261,2.52522 -6.50593,1.21048 l 0,0 z"
       id="path4029"
       inkscape:connector-curvature="0" />
    <path
       style="opacity:0.2;fill:#b3b3b3;fill-opacity:1;stroke:#000000;stroke-width:2.12132025;stroke-miterlimit:4;stroke-opacity:1;stroke-dasharray:none;stroke-dashoffset:0"
       d="m 272.64734,672.86546 c -1.84862,-1.84861 -2.46307,-5.24381 -1.48523,-8.2067 1.41418,-4.28502 5.85245,-5.29851 8.50252,-1.94157 2.05981,2.60923 1.66371,8.28394 -0.71253,10.2081 -2.0468,1.65739 -4.61188,1.63305 -6.30476,-0.0598 l 0,0 z"
       id="path4031"
       inkscape:connector-curvature="0" />
    <path
       style="opacity:0.2;fill:#b3b3b3;fill-opacity:1;stroke:#000000;stroke-width:2.12132025;stroke-miterlimit:4;stroke-opacity:1;stroke-dasharray:none;stroke-dashoffset:0"
       d="m 290.25301,663.60108 c 0,-2.84847 0.0531,-2.91275 2.22679,-2.69645 1.22473,0.12186 2.57544,0.77842 3.00158,1.45901 1.1288,1.80281 -0.29147,3.66422 -3.00158,3.93389 -2.17371,0.2163 -2.22679,0.15202 -2.22679,-2.69645 z"
       id="path4033"
       inkscape:connector-curvature="0" />
    <path
       style="opacity:0.2;fill:#b3b3b3;fill-opacity:1;stroke:#000000;stroke-width:2.12132025;stroke-miterlimit:4;stroke-opacity:1;stroke-dasharray:none;stroke-dashoffset:0"
       d="m 363.28047,666.0413 c 0.78081,-2.54412 1.23972,-2.35606 2.24153,0.91853 0.41372,1.35233 0.22433,1.59099 -1.2625,1.59099 -1.67699,0 -1.71742,-0.10363 -0.97903,-2.50952 z"
       id="path4035"
       inkscape:connector-curvature="0" />
    <path
       style="opacity:0.2;fill:#b3b3b3;fill-opacity:1;stroke:#000000;stroke-width:2.12132025;stroke-miterlimit:4;stroke-opacity:1;stroke-dasharray:none;stroke-dashoffset:0"
       d="m 412.07083,666.0413 c 0.78081,-2.54412 1.23972,-2.35606 2.24153,0.91853 0.41373,1.35233 0.22434,1.59099 -1.26249,1.59099 -1.677,0 -1.71743,-0.10363 -0.97904,-2.50952 z"
       id="path4037"
       inkscape:connector-curvature="0" />
    <path
       style="opacity:0.2;fill:#b3b3b3;fill-opacity:1;stroke:#000000;stroke-width:2.12132025;stroke-miterlimit:4;stroke-opacity:1;stroke-dasharray:none;stroke-dashoffset:0"
       d=""
       id="path4039"
       inkscape:connector-curvature="0" />
    <path
       style="opacity:0.2;fill:#b3b3b3;fill-opacity:1;stroke:#000000;stroke-width:2.12132025;stroke-miterlimit:4;stroke-opacity:1;stroke-dasharray:none;stroke-dashoffset:0"
       d="m 264.79717,525.71526 c 0,-2.84847 0.0531,-2.91275 2.22678,-2.69645 1.22473,0.12187 2.57545,0.77842 3.00159,1.45901 1.1288,1.80281 -0.29147,3.66422 -3.00159,3.93389 -2.1737,0.2163 -2.22678,0.15202 -2.22678,-2.69645 z"
       id="path4041"
       inkscape:connector-curvature="0" />
    <path
       style="opacity:0.2;fill:#b3b3b3;fill-opacity:1;stroke:#000000;stroke-width:2.12132025;stroke-miterlimit:4;stroke-opacity:1;stroke-dasharray:none;stroke-dashoffset:0"
       d="m 283.39339,535.25901 c -3.04517,-2.13292 -3.50425,-8.19594 -0.86168,-11.38005 0.8679,-1.04575 4.70367,-1.33288 6.02445,-0.45097 2.88415,1.9258 3.28067,8.54591 0.66833,11.15824 -1.99292,1.99293 -3.67006,2.18643 -5.8311,0.67278 l 0,0 z"
       id="path4043"
       inkscape:connector-curvature="0" />
    <path
       style="opacity:0.2;fill:#b3b3b3;fill-opacity:1;stroke:#000000;stroke-width:2.12132025;stroke-miterlimit:4;stroke-opacity:1;stroke-dasharray:none;stroke-dashoffset:0"
       d="m 319.76511,535.83258 c -0.68588,-0.17887 -1.72002,-1.23985 -2.2981,-2.35773 -2.53371,-4.89966 -0.2304,-10.58802 4.28727,-10.58802 3.09103,0 4.91473,2.56943 4.91473,6.92442 0,2.51715 -0.37173,3.41727 -1.98398,4.80407 -1.97372,1.69772 -2.54023,1.83788 -4.91992,1.21726 z"
       id="path4045"
       inkscape:connector-curvature="0" />
    <path
       style="opacity:0.2;fill:#b3b3b3;fill-opacity:1;stroke:#000000;stroke-width:2.12132025;stroke-miterlimit:4;stroke-opacity:1;stroke-dasharray:none;stroke-dashoffset:0"
       d="m 368.74186,525.71526 c 0,-2.6264 0.14142,-2.82843 1.9799,-2.82843 2.26377,0 3.67695,1.13186 3.67695,2.94497 0,1.41056 -2.01357,2.71189 -4.19615,2.71189 -1.23275,0 -1.4607,-0.4414 -1.4607,-2.82843 z"
       id="path4047"
       inkscape:connector-curvature="0" />
    <path
       style="opacity:0.2;fill:#b3b3b3;fill-opacity:1;stroke:#000000;stroke-width:2.12132025;stroke-miterlimit:4;stroke-opacity:1;stroke-dasharray:none;stroke-dashoffset:0"
       d="m 386.70643,534.67612 c -1.51793,-1.30567 -1.92789,-2.29829 -1.98398,-4.80375 -0.0986,-4.40567 1.69036,-6.98554 4.84404,-6.98554 7.38759,0 6.93665,13.27997 -0.45588,13.42537 -0.26999,0.005 -1.35188,-0.73092 -2.40418,-1.63608 z"
       id="path4049"
       inkscape:connector-curvature="0" />
    <path
       style="opacity:0.2;fill:#b3b3b3;fill-opacity:1;stroke:#000000;stroke-width:2.12132025;stroke-miterlimit:4;stroke-opacity:1;stroke-dasharray:none;stroke-dashoffset:0"
       d="m 446.5236,525.71526 c 0,-2.5234 0.1852,-2.82843 1.71726,-2.82843 1.67919,0 3.9396,1.62286 3.9396,2.82843 0,1.20557 -2.26041,2.82843 -3.9396,2.82843 -1.53206,0 -1.71726,-0.30503 -1.71726,-2.82843 z"
       id="path4051"
       inkscape:connector-curvature="0" />
    <path
       style="opacity:0.2;fill:#b3b3b3;fill-opacity:1;stroke:#000000;stroke-width:2.12132025;stroke-miterlimit:4;stroke-opacity:1;stroke-dasharray:none;stroke-dashoffset:0"
       d="m 383.20541,469.53241 c -3.60379,-3.60379 -1.4295,-11.6994 3.14218,-11.6994 2.98638,0 5.02169,2.63081 5.02169,6.49095 0,6.08418 -4.44945,8.92288 -8.16387,5.20845 z"
       id="path4053"
       inkscape:connector-curvature="0" />
    <path
       style="opacity:0.2;fill:#b3b3b3;fill-opacity:1;stroke:#000000;stroke-width:2.12132025;stroke-miterlimit:4;stroke-opacity:1;stroke-dasharray:none;stroke-dashoffset:0"
       d="m 347.43394,463.13631 c 0.62933,-1.75009 1.33502,-3.18198 1.56821,-3.18198 0.38182,0 2.06204,4.82027 2.06204,5.91567 0,0.24656 -1.07426,0.44829 -2.38724,0.44829 l -2.38725,0 1.14424,-3.18198 z"
       id="path4055"
       inkscape:connector-curvature="0" />
    <path
       style="opacity:0.2;fill:#b3b3b3;fill-opacity:1;stroke:#000000;stroke-width:2.12132025;stroke-miterlimit:4;stroke-opacity:1;stroke-dasharray:none;stroke-dashoffset:0"
       d="m 293.78854,461.01499 c 0,-3.01362 0.10476,-3.18198 1.9799,-3.18198 2.41043,0 3.67696,1.15077 3.67696,3.3409 0,1.11393 -0.58471,1.86615 -1.8138,2.33346 -3.33404,1.26759 -3.84306,0.93748 -3.84306,-2.49238 z"
       id="path4057"
       inkscape:connector-curvature="0" />
    <path
       style="opacity:0.2;fill:#b3b3b3;fill-opacity:1;stroke:#000000;stroke-width:2.12132025;stroke-miterlimit:4;stroke-opacity:1;stroke-dasharray:none;stroke-dashoffset:0"
       d="m 279.64641,461.10338 c 0,-2.83366 0.19505,-3.27037 1.4607,-3.27037 5.12167,0 5.7924,5.09012 0.80224,6.08815 l -2.26294,0.45259 0,-3.27037 z"
       id="path4059"
       inkscape:connector-curvature="0" />
    <path
       style="opacity:0.2;fill:#b3b3b3;fill-opacity:1;stroke:#000000;stroke-width:2.12132025;stroke-miterlimit:4;stroke-opacity:1;stroke-dasharray:none;stroke-dashoffset:0"
       d="m 264.09006,465.69754 c 0,-0.87195 2.16138,-5.95102 2.40131,-5.64286 0.10842,0.13926 0.7236,1.60555 1.36706,3.25841 l 1.16993,3.0052 -2.46915,0 c -1.35803,0 -2.46915,-0.27934 -2.46915,-0.62075 z"
       id="path4061"
       inkscape:connector-curvature="0" />
  </g>
</svg>
